<svg xmlns="http://www.w3.org/2000/svg" data-name="Layer 1" width="972.6753540039062" height="636.5372314453125"><rect id="backgroundrect" width="100%" height="100%" x="0" y="0" fill="none" stroke="none"/><g class="currentLayer" style=""><title>Layer 1</title><path d="M853.4215622607422,426.6611609814453 a10.05576,10.05576 0 0 1 2.72838,-15.176 l-6.58212,-35.12342 l17.12013,7.19268 l3.6257900000000003,32.25108 a10.11027,10.11027 0 0 1 -16.89218,10.85568 z" fill="#ffb6b6" id="svg_1"/><rect id="f38b076b-59d8-4a3a-9764-ba710fdc09c8" data-name="Rectangle 62" x="61.137508392333984" y="20.605770111083984" width="751.605712890625" height="356.6499328613281" fill="#e6e6e6"/><rect id="a3e272cc-df3f-4d80-b321-62d216886f20" data-name="Rectangle 75" x="82.62992858886719" y="51.18912887573242" width="708.6218872070312" height="297.5641784667969" fill="#fff"/><rect id="e835d13b-e721-4725-9202-bbf482b4bd3b" data-name="Rectangle 80" x="60.81703186035156" width="751.605712890625" height="31.93044090270996" fill="#ff8600" class="" fill-opacity="1"/><circle id="be4979c6-1dab-43b6-a6ee-71cd46d62419" data-name="Ellipse 90" cx="84.54531860351562" cy="14.769309997558594" r="5.918190002441406" fill="#fff"/><circle id="b0ea5047-583b-4910-b1a7-8a4b76ab40b8" data-name="Ellipse 91" cx="107.0088119506836" cy="14.769309997558594" r="5.918190002441406" fill="#fff"/><circle id="f37d9a3e-ad35-4554-bb71-f31101cbe222" data-name="Ellipse 92" cx="129.4733428955078" cy="14.769309997558594" r="5.918190002441406" fill="#fff"/><path id="bb164f67-fbc5-46a9-bc53-51bf316e72eb" data-name="Path 142" d="M124.07210226074218,242.6335509814453 a3.10552,3.10552 0 0 0 0,6.211 h170.4059 a3.10552,3.10552 0 0 0 0,-6.211 z" fill="#e6e6e6"/><path id="a443cdab-5007-48b4-8b70-6d9701024bb2" data-name="Path 143" d="M124.07210226074218,261.2683809814453 a3.10552,3.10552 0 0 0 0,6.211 h86.99566 a3.10552,3.10552 0 0 0 0,-6.211 z" fill="#e6e6e6"/><path id="f7d6bd93-8cee-4d05-900c-0964279c7a84" data-name="Path 154" d="M294.69230226074217,296.4498909814453 H229.96105226074218 a3.16582,3.16582 0 0 1 -3.16228,-3.16228 V282.9163309814453 a3.16583,3.16583 0 0 1 3.16228,-3.16228 h64.73125 a3.16583,3.16583 0 0 1 3.16228,3.16228 V293.2876309814453 A3.16582,3.16582 0 0 1 294.69230226074217,296.4498909814453 z" fill="#ff8600" class="selected" fill-opacity="1"/><path id="b9375ed9-a91c-4567-8040-b14da9424350" data-name="Path 154" d="M294.69230226074217,188.44989098144532 H229.96105226074218 a3.16582,3.16582 0 0 1 -3.16228,-3.16228 V174.9163309814453 a3.16583,3.16583 0 0 1 3.16228,-3.16228 h64.73125 a3.16583,3.16583 0 0 1 3.16228,3.16228 V185.28763098144532 A3.16582,3.16582 0 0 1 294.69230226074217,188.44989098144532 z" fill="#ff8600" class="" fill-opacity="1"/><path id="e51c2c64-3ae5-421d-97d2-6993e1b4a0e1" data-name="Path 142" d="M408.7873822607422,103.23016098144532 a4.0522,4.0522 0 0 0 0,8.10439 H747.6990222607421 a4.0522,4.0522 0 0 0 0,-8.10439 z" fill="#e6e6e6"/><path id="bb6ebd78-ef21-4bf3-8138-c36b4f5ae8d3" data-name="Path 143" d="M408.7873822607422,127.5456309814453 a4.0522,4.0522 0 0 0 0,8.10439 H638.8620722607421 a4.0522,4.0522 0 0 0 0,-8.10439 z" fill="#e6e6e6"/><path id="b0279cb1-e051-4fdd-8ff4-a6bdaa244cb4" data-name="Path 142" d="M408.7873822607422,151.3109209814453 a4.0522,4.0522 0 0 0 0,8.10439 H747.6990222607421 a4.0522,4.0522 0 0 0 0,-8.10439 z" fill="#e6e6e6"/><path id="b8fe22d0-d29e-4fd2-8057-acce26acd380" data-name="Path 143" d="M408.7873822607422,175.6263709814453 a4.0522,4.0522 0 0 0 0,8.10439 H638.8620722607421 a4.0522,4.0522 0 0 0 0,-8.10439 z" fill="#e6e6e6"/><path id="e1b0698e-7706-4223-aefd-57a6dfde5692" data-name="Path 154" d="M748.6923022607422,228.21625098144528 H683.9610522607422 a3.16583,3.16583 0 0 1 -3.16228,-3.16228 V214.68269098144532 a3.16583,3.16583 0 0 1 3.16228,-3.16228 h64.73125 a3.16583,3.16583 0 0 1 3.16228,3.16228 v10.37128 A3.16583,3.16583 0 0 1 748.6923022607422,228.21625098144528 z" fill="#ff8600" class="" fill-opacity="1"/><path id="f8f2501b-24d6-4bc5-9452-5f6747352c8d" data-name="Path 155" d="M197.46463226074218,107.61963098144531 c-1.1501000000000001,0.0036400000000000013 -2.08062,1.4971800000000002 -2.07834,3.3359 c0.0022800000000000008,1.83359 0.93146,3.3191100000000002 2.07834,3.32272 h98.17952 c1.1501000000000001,-0.0036400000000000013 2.08061,-1.4971800000000002 2.0783300000000002,-3.3359 c-0.0022800000000000008,-1.83358 -0.93145,-3.3191 -2.0783300000000002,-3.32272 z" fill="#e4e4e4"/><path id="bf240ba4-7ac6-4616-9791-82be96e2dade" data-name="Path 156" d="M197.46463226074218,126.91202098144532 c-1.1501000000000001,0.0036500000000000013 -2.08062,1.49719 -2.07834,3.3359 c0.0022800000000000008,1.83359 0.93146,3.3191100000000002 2.07834,3.32273 h98.17952 c1.1501000000000001,-0.0036500000000000013 2.08061,-1.4971800000000002 2.0783300000000002,-3.3359 c-0.0022800000000000008,-1.83359 -0.93145,-3.3191100000000002 -2.0783300000000002,-3.32273 z" fill="#e4e4e4"/><path id="a4452d36-433f-4f97-99ed-f04c2decb731" data-name="Path 157" d="M197.46463226074218,145.9710909814453 c-1.1501000000000001,0.0036400000000000013 -2.08062,1.4971800000000002 -2.07834,3.3359 c0.0022800000000000008,1.83358 0.93146,3.3191 2.07834,3.32272 h42.24679 c1.1501000000000001,-0.0036500000000000013 2.08062,-1.4971800000000002 2.07834,-3.3359 c-0.0022800000000000008,-1.83359 -0.93146,-3.3191100000000002 -2.07834,-3.32272 z" fill="#e4e4e4"/><circle cx="147.6146240234375" cy="129.87205505371094" r="26.641889572143555" fill="#e4e4e4" id="svg_2"/><path d="M699.2723122607422,222.9400409814453 a10.05576,10.05576 0 0 0 10.45346,11.33494 l13.31553,33.16136 l10.57664,-15.2633 l-14.26617,-29.15056 a10.11027,10.11027 0 0 0 -20.07946,-0.08244000000000001 z" fill="#ffb6b6" id="svg_3"/><polygon points="849.397 621.765 837.138 621.765 831.305 574.477 849.4 574.478 849.397 621.765" fill="#ffb6b6" id="svg_4"/><path d="M852.5239622607422,633.6493709814453 l-39.53076,-0.0014700000000000004 v-0.5 A15.38731,15.38731 0 0 1 828.3796922607422,617.7616309814454 h0.0010000000000000002 l24.144,0.0010000000000000002 z" fill="#2f2e41" id="svg_5"/><polygon points="809.279 621.376 797.591 617.675 806.302 570.832 823.552 576.294 809.279 621.376" fill="#ffb6b6" id="svg_6"/><path d="M808.6733622607422,633.6493709814453 l-37.6871,-11.93162 l0.15090000000000003,-0.47669 A15.38729,15.38729 0 0 1 790.4496922607422,611.2158309814453 l0.0009300000000000003,0.0002900000000000001 l23.018,7.28751 z" fill="#2f2e41" id="svg_7"/><path d="M794.7587822607422,390.6493109814453 s-18.19032,28.56223 -11.76248,54.05435 s13.42783,74.49213 13.42783,74.49213 l34.85215,82.94338 l25.98,-1.05987 l-25.8,-97.793 l1.02014,-65.38582 s17.932,-31.24936 14.43984,-40.977 S794.7587822607422,390.6493109814453 794.7587822607422,390.6493109814453 z" fill="#2f2e41" id="svg_8"/><path d="M854.1862622607422,400.86115098144535 s2.23787,28.33464 -4.76213,40.33464 s-14.457840000000001,57.67343 -14.457840000000001,57.67343 l-11.89805,91.34626 l-24.64411,-8.01969 L819.4386922607422,479.85327098144535 l16.517,-80.50394 z" fill="#2f2e41" id="svg_9"/><path d="M862.9241322607422,263.6957909814453 l-19.22786,-13.2165 l-29.26032,-0.8498800000000001 l-10.18963,9.989840000000001 l-15.55,7.94055 l-1.44007,129.36367 s46.56525,22.31937 71.61656,11.54584 l12.05131,-100.77352 C875.9241322607422,287.6957909814453 862.9241322607422,263.6957909814453 862.9241322607422,263.6957909814453 z" fill="#3f3d56" id="svg_10"/><path d="M792.6018422607422,302.1300409814453 H741.3135122607422 l-33.69628,-58.00195 l21.91064,-8.67871 l18.55566,33.00781 l26.85718,-2.43067 l16.76929,-0.811 a18.4681,18.4681 0 0 1 19.22241,20.69678 h0 A18.48975,18.48975 0 0 1 792.6018422607422,302.1300409814453 z" fill="#3f3d56" id="svg_11"/><circle cx="831.4518432617188" cy="213.60641479492188" r="25.3700008392334" fill="#ffb6b6" id="svg_12"/><path d="M862.0205522607422,207.83432098144533 c-0.77906,-5.5697600000000005 -4.55127,-10.858270000000001 -9.916,-12.54565 c-2.1311,-6.1886 -7.77588,-10.74475 -14.01245,-12.730830000000001 a27.3719,27.3719 0 0 0 -31.467,11.47662 c-0.47730000000000006,0.75043 -1.94483,2.5940000000000003 -1.90381,3.4895 c0.05200000000000001,1.13733 1.792,2.31165 2.6660000000000004,3.02869 a39.08567,39.08567 0 0 0 6.97046,4.30224 c9.12281,4.729620000000001 6.08594,12.16248 5.96216,20.58533 c-0.06006000000000001,4.09314 1.3064,7.588 4.79663,9.926 c5.03711,3.37421 12.24585,2.0318 17.72657,0.6776200000000002 c6.219,-1.53675 11.3894,-7 14.936,-12.26764 C860.9202022607421,219.1110609814453 862.7998422607421,213.40409098144534 862.0205522607422,207.83432098144533 z" fill="#2f2e41" id="svg_13"/><polygon points="862.197 296.725 872.069 405.008 840.352 403.307 862.197 296.725" fill="#3f3d56" id="svg_14"/><path d="M971.4846922607421,636.5372609814453 H583.1906922607421 a1.19069,1.19069 0 0 1 0,-2.38137 h388.294 a1.19068,1.19068 0 0 1 0,2.38137 z" fill="#cacaca" id="svg_15"/><polygon points="84.089 624.666 93.598 624.666 98.122 587.987 84.087 587.987 84.089 624.666" fill="#9e616a" id="svg_16"/><path d="M81.66328226074219,621.5614209814453 L100.39069226074218,621.5606309814453 h0.0007600000000000003 a11.93522,11.93522 0 0 1 11.93457,11.93438 v0.38783000000000006 l-30.66217,0.0011400000000000004 z" fill="#2f2e41" id="svg_17"/><polygon points="171.738 624.666 181.247 624.666 185.771 587.987 171.736 587.987 171.738 624.666" fill="#9e616a" id="svg_18"/><path d="M169.3121122607422,621.5614209814453 l18.72741,-0.0007600000000000003 h0.0007600000000000003 a11.93524,11.93524 0 0 1 11.93457,11.93438 v0.38783000000000006 l-30.66217,0.0011400000000000004 z" fill="#2f2e41" id="svg_19"/><polygon points="160.256 329.996 166.461 369.554 107.512 370.33 115.268 332.323 160.256 329.996" fill="#9e616a" id="svg_20"/><path d="M164.75059226074217,359.89549098144533 l18.77521,49.99293 l2.327,207.17884 H169.95187226074216 l-38.007,-166.457 l-34.9044,162.11154 H81.52739226074218 l10.85915,-182.27853 s-3.20226,-36.58541 13.1861,-58.174 l3.98907,-11.52474 z" fill="#2f2e41" id="svg_21"/><path d="M84.21562226074218,398.86753098144527 a11.63672,11.63672 0 0 0 7.45575,-16.21121 l25.07809,-81.76061 l-18.44591,-3.6565000000000003 l-22.93636,80.1425 a11.69979,11.69979 0 0 0 8.84843,21.48582 z" fill="#9e616a" id="svg_22"/><path d="M117.29069226074219,351.8438909814453 a5.28456,5.28456 0 0 1 -1.025,-0.10116000000000001 h0 a5.30084,5.30084 0 0 1 -4.24613,-4.8025 c-0.58311,-7.98356 -3.47232,-21.88028 -8.5874,-41.305 a32.6914,32.6914 0 0 1 51.62121,-34.13692 a32.2691,32.2691 0 0 1 12.45024,22.06768 c2.54221,22.38772 -2.25054,44.86542 -4.42895,53.49034 a5.31242,5.31242 0 0 1 -5.03549,4.00194 L117.40369226074219,351.8426309814453 C117.36597226074218,351.8434709814453 117.32845226074218,351.8438909814453 117.29069226074219,351.8438909814453 z" fill="#3f3d56" id="svg_23"/><path d="M230.81874226074217,280.02533098144534 a11.402,11.402 0 0 0 -0.5997200000000001,1.69231 l-50.86412,17.284 l-9.82844,-8.58615 l-14.89671,13.13921 l15.92214,16.891000000000002 a8.66578,8.66578 0 0 0 10.24779,1.77317 l54.42773,-27.80157 a11.3707,11.3707 0 1 0 -4.40867,-14.392 z" fill="#9e616a" id="svg_24"/><path d="M177.5817422607422,299.9463609814453 l-18.54216,16.19516 a4.87454,4.87454 0 0 1 -7.308,-1.03711 l-13.26272,-20.65256 a13.53749,13.53749 0 0 1 20.444,-17.750890000000002 l18.62427,15.86433 a4.87453,4.87453 0 0 1 0.044650000000000016,7.38107 z" fill="#3f3d56" id="svg_25"/><path d="M113.81983226074217,321.8298109814453 l-22.91416,-9.002 a4.87455,4.87455 0 0 1 -2.4445,-6.96468 l12.22567,-21.28289 a13.53748,13.53748 0 0 1 25.17085,9.9738 l-5.50642,23.83736 a4.87453,4.87453 0 0 1 -6.53144,3.43841 z" fill="#3f3d56" id="svg_26"/><circle cx="130.80563354492188" cy="234.72923278808594" r="24.924930572509766" fill="#9e616a" id="svg_27"/><path d="M389.4846922607422,636.5372609814453 H1.190692260742182 a1.19069,1.19069 0 0 1 0,-2.38137 H389.4846922607422 a1.19069,1.19069 0 0 1 0,2.38137 z" fill="#cacaca" id="svg_28"/><path d="M147.9519522607422,224.70955098144532 q8.02147,-0.04514000000000001 16.043,-0.09033000000000002 c0.3803700000000001,-3.64466 -1.2417,-7.27069 -3.605,-10.07093 a41.05788,41.05788 0 0 0 -8.4458,-6.98224 c-3.06739,-2.105 -6.24512,-4.2578700000000005 -9.89161,-4.99359 c-3.05664,-0.6165700000000001 -6.21582,-0.18872000000000003 -9.30371,0.24066 q-6.14282,0.8541900000000001 -12.28515,1.70832 c-4.49512,0.6250600000000001 -9.19825,1.332 -12.84912,4.02789 c-4.9375,3.64563 -6.82618,10.03369 -8.4126,15.96234 l-8.78174,32.81574 l51.8706,5.44085 a14.26147,14.26147 0 0 0 5.65284,-0.16424000000000005 a4.85888,4.85888 0 0 0 3.6147400000000003,-3.95233 c0.14942000000000003,-2.11548 -1.52881,-3.847 -2.8916000000000004,-5.47174 a25.56243,25.56243 0 0 1 -2.20459,-28.905640000000002 z" fill="#2f2e41" id="svg_29"/></g></svg>