<svg xmlns="http://www.w3.org/2000/svg" data-name="Layer 1" width="1077.32531" height="784.02695"><rect id="backgroundrect" width="100%" height="100%" x="0" y="0" fill="none" stroke="none"/><g class="currentLayer" style=""><title>Layer 1</title><path d="M1059.1785710620118,551.166959696045 c-18.84034,38.87 -51.46045,68.61 -88.78028,91.24 a392.45588,392.45588 0 0 1 -47.64013,24.39 q-16.10962,6.975 -32.65967,12.73 c-54.73,19.11 -112.64014,28.45 -170.65039,28.48 q-14.22,0.015000000000000003 -28.43994,-0.7300000000000001 q-4.0796,-0.21000000000000002 -8.15967,-0.48000000000000004 q-21.49512,-1.425 -42.8501,-4.57 c-0.28027,-0.04000000000000001 -0.5698200000000001,-0.08000000000000002 -0.8501000000000001,-0.13 a539.77422,539.77422 0 0 1 -87.77,-20.57 q-8.3247,-2.7 -16.5498,-5.67 c-1.48,-0.52 -2.96,-1.07 -4.43018,-1.6100500000000002 q-9.27026,-3.435 -18.3999,-7.21 q-7.68018,-3.165 -15.27,-6.57 q-7.47,-3.375 -14.83984,-6.97 q-12.06006,-5.90991 -23.86035,-12.38995 q-9.10475,-5.04008 -17.96973,-10.46 a496.62043,496.62043 0 0 1 -42.49024,-29.08 q-7.22973,-5.52 -14.25976,-11.32 c-3.25,-2.68 -6.47022,-5.42 -9.74024,-8.07995 c-6.899900000000001,-5.61 -14,-10.94 -21.91992,-14.93 a78.62631,78.62631 0 0 0 -7.33984,-3.24006 a91.90524,91.90524 0 0 0 -29.15039,-5.67 c-16.98975,-0.6700000000000002 -34.52979,2.49 -50.96,7.17 c-7.80957,2.21 -15.52979,4.75 -23.25,7.35 q-4.75488,1.605 -9.5,3.22 c-6.54,2.23 -13.07959,4.41 -19.67969,6.4 c-2.2002,0.6600000000000001 -4.3999,1.31 -6.61035,1.92 a194.22735,194.22735 0 0 1 -26.90967,5.72 a143.37367,143.37367 0 0 1 -60.49023,-5.27 l-1.6699300000000001,-0.52 c-2.7998000000000003,-0.8800000000000001 -5.56982,-1.84 -8.33007,-2.8899500000000002 l-1.6699300000000001,-0.6400000000000001 q-3.98949,-1.545 -7.83007,-3.31 l-1.6699300000000001,-0.7600000000000001 c-2.46,-1.15 -4.87011,-2.35 -7.23974,-3.62 c-0.20020000000000002,-0.1 -0.39014000000000004,-0.2 -0.59033,-0.31000000000000005 c-0.91993,-0.48000000000000004 -1.82959,-1 -2.73,-1.49 a164.61837,164.61837 0 0 1 -39.15967,-30.49 c-0.3300800000000001,-0.33000000000000007 -0.6401400000000002,-0.6700000000000002 -1,-1 c-1.59033,-1.7200000000000002 -3.15039,-3.47 -4.66016,-5.26 c-0.56006,-0.6600000000000001 -1.12012,-1.32 -1.6699200000000003,-2 q-2.68506,-3.285 -5.18994,-6.71 c-0.25,-0.33000000000000007 -0.49024,-0.6700000000000002 -0.7300000000000001,-1 a145.03046,145.03046 0 0 1 -16.87012,-30.5 c-0.14014000000000001,-0.33000000000000007 -0.27,-0.6700000000000002 -0.39014000000000004,-1 q-1.9950999999999999,-5.145 -3.6499,-10.47 c-0.45019,-1.48 -0.8798800000000001,-3 -1.26025,-4.48 c-0.12989,-0.44000000000000006 -0.25,-0.8900000000000001 -0.3598700000000001,-1.33 c-5.46972,-21.72 -6.06,-44.31006 -6.06,-66.77 v-7.85 c0.16015000000000001,-36.33 0.72021,-73.28 6.08007,-109.11 a6.03567,6.03567 0 0 1 0.10987000000000001,-0.7400000000000001 a344.02421,344.02421 0 0 1 7.31006,-35.82 a265.59868,265.59868 0 0 1 12.31,-36.3 c12.33008,-29 30.26026,-55.39 50.16993,-79.85 c50.10009,-61.51 115.87011,-113.22 192.85009,-132.51 c82.9502,-20.83 175.14014,-0.8700000000000001 242.04981,52.4 c19.73047,15.7 37.52051,34.2 59.39013,46.66 q1.11036,0.6450000000000001 2.25,1.26 q4.33521,2.3549100000000003 8.85987,4.28 a91.427,91.427 0 0 0 12.31006,4.25 c13.29,3.5700000000000003 27.18017,3.89 40.43017,-0.54 c1.08008,-0.37000000000000005 2.16016,-0.7600000000000001 3.23,-1.19 c2.27,-0.9 4.43994,-1.7400000000000002 6.52979,-2.52 c14.26025,-5.3100000000000005 25.24023,-7.890000000000001 42.57031,-6.96 a411.34574,411.34574 0 0 1 120.35986,25.19 c1.56006,0.5700000000000001 3.12012,1.1600000000000001 4.66993,1.75 c100.71,38.55005 187.30029,115.1 232.28027,213.47 q1.79956,3.9 3.46973,7.86 C1079.0882310620118,416.63692969604494 1088.7684110620116,490.1069596960449 1059.1785710620118,551.166959696045 z" fill="#f2f2f2" style="isolation:isolate" id="svg_1"/><polygon points="63.608 512.617 63.608 513.017 63.458 513.197 63.608 512.617" fill="#cacaca" id="svg_2"/><path d="M240.94810106201174,572.8469496960449 q-4.75488,1.605 -9.5,3.22 v-3.22 z" fill="#fff" id="svg_3"/><rect x="575.2965087890625" y="58.76762008666992" width="23.421890258789062" height="58.55474090576172" fill="#e4e4e4" id="svg_4"/><path d="M639.1482910620117,112.70693969604491 v589.39 a539.77422,539.77422 0 0 1 -87.77,-20.57 q-8.3247,-2.7 -16.5498,-5.67 c-1.48,-0.52 -2.96,-1.07 -4.43018,-1.6100500000000002 q-9.27026,-3.435 -18.3999,-7.21 q-7.68018,-3.165 -15.27,-6.57 q-7.47,-3.375 -14.83984,-6.97 q-12.06006,-5.90991 -23.86035,-12.38995 q-9.10475,-5.04008 -17.96973,-10.46 v-517.94 z" fill="#e4e4e4" id="svg_5"/><path d="M719.4481010620117,112.70693969604491 v595.3 q-14.22,0.015000000000000003 -28.43994,-0.7300000000000001 q-4.0796,-0.21000000000000002 -8.15967,-0.48000000000000004 q-21.49512,-1.425 -42.8501,-4.57 c-0.28027,-0.04000000000000001 -0.5698200000000001,-0.08000000000000002 -0.8501000000000001,-0.13 v-589.39 z" fill="#cacaca" id="svg_6"/><rect x="476.0290222167969" y="171.2598876953125" width="30.113859176635742" height="30.113859176635742" fill="#fff" id="svg_7"/><rect x="524.5457763671875" y="171.2598876953125" width="30.113859176635742" height="30.113859176635742" fill="#fff" id="svg_8"/><rect x="573.0625610351562" y="171.2598876953125" width="30.113859176635742" height="30.113859176635742" fill="#fff" id="svg_9"/><rect x="476.8655090332031" y="239.8525848388672" width="30.113859176635742" height="30.113859176635742" fill="#fff" id="svg_10"/><rect x="525.38232421875" y="239.8525848388672" width="30.113859176635742" height="30.113859176635742" fill="#fff" id="svg_11"/><rect x="573.8991088867188" y="239.8525848388672" width="30.113859176635742" height="30.113859176635742" fill="#fff" id="svg_12"/><rect x="477.7020263671875" y="308.4452819824219" width="30.113859176635742" height="30.113859176635742" fill="#fff" id="svg_13"/><rect x="526.2188110351562" y="308.4452819824219" width="30.113859176635742" height="30.113859176635742" fill="#fff" id="svg_14"/><rect x="574.735595703125" y="308.4452819824219" width="30.113859176635742" height="30.113859176635742" fill="#fff" id="svg_15"/><rect x="478.53851318359375" y="377.0379638671875" width="30.113859176635742" height="30.113859176635742" fill="#fff" id="svg_16"/><rect x="527.0552978515625" y="377.0379638671875" width="30.113859176635742" height="30.113859176635742" fill="#fff" id="svg_17"/><rect x="575.5720825195312" y="377.0379638671875" width="30.113859176635742" height="30.113859176635742" fill="#fff" id="svg_18"/><rect x="479.375" y="445.6306457519531" width="30.113859176635742" height="30.113859176635742" fill="#fff" id="svg_19"/><rect x="527.8917846679688" y="445.6306457519531" width="30.113859176635742" height="30.113859176635742" fill="#fff" id="svg_20"/><rect x="576.4085693359375" y="445.6306457519531" width="30.113859176635742" height="30.113859176635742" fill="#fff" id="svg_21"/><rect x="480.21148681640625" y="514.2233276367188" width="30.113859176635742" height="30.113859176635742" fill="#fff" id="svg_22"/><rect x="528.728271484375" y="514.2233276367188" width="30.113859176635742" height="30.113859176635742" fill="#fff" id="svg_23"/><rect x="577.2450561523438" y="514.2233276367188" width="30.113859176635742" height="30.113859176635742" fill="#fff" id="svg_24"/><rect x="481.0480041503906" y="582.8160400390625" width="30.113859176635742" height="30.113859176635742" fill="#fff" id="svg_25"/><rect x="529.5647583007812" y="582.8160400390625" width="30.113859176635742" height="30.113859176635742" fill="#fff" id="svg_26"/><rect x="578.08154296875" y="582.8160400390625" width="30.113859176635742" height="30.113859176635742" fill="#fff" id="svg_27"/><path d="M511.9983910620117,651.4069496960449 v15.63 q-7.68018,-3.165 -15.27,-6.57 q-7.47,-3.375 -14.83984,-6.97 v-2.09 z" fill="#fff" id="svg_28"/><path d="M560.5184110620118,651.4069496960449 v30.12 h-9.14014 q-8.3247,-2.7 -16.5498,-5.67 c-1.48,-0.52 -2.96,-1.07 -4.43018,-1.6100500000000002 v-22.84 z" fill="#fff" id="svg_29"/><rect x="578.9180297851562" y="651.4087524414062" width="30.113859176635742" height="30.113859176635742" fill="#fff" id="svg_30"/><rect x="848.2698364257812" y="356.9620666503906" width="23.421890258789062" height="34.704078674316406" fill="#e4e4e4" id="svg_31"/><path d="M890.0984910620117,388.6869196960449 v290.84 c-54.73,19.11 -112.64014,28.45 -170.65039,28.48 q-14.22,0.015000000000000003 -28.43994,-0.7300000000000001 v-318.59 z" fill="#e4e4e4" id="svg_32"/><path d="M970.3982910620118,388.6869196960449 v253.72 a392.45588,392.45588 0 0 1 -47.64013,24.39 q-16.10962,6.975 -32.65967,12.73 v-290.84 z" fill="#cacaca" id="svg_33"/><rect x="730.3238525390625" y="445.6306457519531" width="30.113859176635742" height="30.113859176635742" fill="#fff" id="svg_34"/><rect x="778.8406372070312" y="445.6306457519531" width="30.113859176635742" height="30.113859176635742" fill="#fff" id="svg_35"/><rect x="827.357421875" y="445.6306457519531" width="30.113859176635742" height="30.113859176635742" fill="#fff" id="svg_36"/><rect x="731.160400390625" y="514.2233276367188" width="30.113859176635742" height="30.113859176635742" fill="#fff" id="svg_37"/><rect x="779.6771240234375" y="514.2233276367188" width="30.113859176635742" height="30.113859176635742" fill="#fff" id="svg_38"/><rect x="828.1939697265625" y="514.2233276367188" width="30.113859176635742" height="30.113859176635742" fill="#fff" id="svg_39"/><rect x="731.9968872070312" y="582.8160400390625" width="30.113859176635742" height="30.113859176635742" fill="#fff" id="svg_40"/><rect x="780.513671875" y="582.8160400390625" width="30.113859176635742" height="30.113859176635742" fill="#fff" id="svg_41"/><rect x="829.0304565429688" y="582.8160400390625" width="30.113859176635742" height="30.113859176635742" fill="#fff" id="svg_42"/><rect x="732.8333740234375" y="651.4087524414062" width="30.113859176635742" height="30.113859176635742" fill="#fff" id="svg_43"/><rect x="781.3501586914062" y="651.4087524414062" width="30.113859176635742" height="30.113859176635742" fill="#fff" id="svg_44"/><rect x="829.866943359375" y="651.4087524414062" width="30.113859176635742" height="30.113859176635742" fill="#fff" id="svg_45"/><path d="M714.5742210620117,717.180469696045 s10.71245,38.099 55.57767,36.36726 s64.26109,-37.06 64.26109,-37.06 z" fill="#3f3d56" id="svg_46"/><polygon points="96.331 568.594 83.513 592.07 85.594 636.133 392.751 727.401 526.504 743.85 500.355 584.338 408.852 568.136 271.586 572.058 155.211 550.584 96.331 568.594" fill="#2f2e41" id="svg_47"/><path d="M139.0891210620117,723.0684696960449 h-7.92912 A40.14406,40.14406 0 0 1 94.63565106201173,699.8938396960449 c-12.22389,-26.68555 -8.60289,-63.58655 -8.54928,-64.11284 c2.77,-31.89509 20.25026,-52.70411 43.50068,-51.75976 c25.66746,1.035 47.55461,89.81414 48.47377,93.59292 a33.0874,33.0874 0 0 1 -1.1528800000000001,19.199 A40.01006,40.01006 0 0 1 139.0891210620117,723.0684696960449 z" fill="#3f3d56" id="svg_48"/><path d="M462.42791106201173,784.0269396960449 a27.92868,27.92868 0 0 1 -4.04683,-0.39100000000000007 a62.70016,62.70016 0 0 1 -47.34728,-36.04322 c-3.21495,-6.99136 -6.30779,-14.14981 -9.19261,-21.27715 c-11.584620000000001,-28.62095 -1.87316,-78.65433 13.90662,-98.02044 c13.92725,-17.09315 27.94481,-16.95786 49.1653,-16.75762 c2.17859,0.021000000000000005 4.4354700000000005,0.041940000000000005 6.77827,0.04600000000000001 c23.56092,0.038560000000000004 48.46938,86.70979 56.65455,115.19071 c0.6514500000000001,2.26619 1.19026,4.14138 1.6070000000000002,5.54777 c1.2824200000000001,4.32808 1.13,9.50446 -0.45307000000000003,15.38438 c-4.99441,18.55095 -21.45371,32.30908 -40.957,34.23636 C474.5346510620117,783.3254696960449 465.7482210620117,784.0269396960449 462.42791106201173,784.0269396960449 z" fill="#3f3d56" id="svg_49"/><path d="M85.59388106201172,636.1334696960449 s-9.00523,-40.17716 4.50261,-67.53919 l13.6142,-32.90371 l51.446,47.797 l11.74746,74.79042 L368.21940106201174,688.7793696960449 S355.75065106201174,566.1697696960449 434.0268210620117,561.3207996960449 s115.418,127.45857 115.418,127.45857 L588.5010710620118,717.180469696045 L860.7359510620117,697.091889696045 s4.80582,13.16148 -2.0997,20.08857 s-337.328,28.4011 -337.328,28.4011 s-16.625,-164.17218 -82.43244,-148.93257 S392.75065106201174,727.4011696960449 392.75065106201174,727.4011696960449 L157.63565106201173,686.0085296960449 s-7.61981,-111.52625 -46.41155,-111.52625 S85.59388106201172,636.1334696960449 85.59388106201172,636.1334696960449 z" fill="#3f3d56" id="svg_50"/><polygon points="131.986 496.458 176.339 426.935 365.449 415.852 575.34 418.623 673.012 509.368 370.99 526.685 127.849 513.524 131.986 496.458" fill="#3f3d56" id="svg_51"/><path d="M131.98633106201171,496.45824969604496 s-37.73358,0.78691 -41.88984,72.136 c0,0 40.17716,-72.73451 74.81264,89.35954 L371.68295106201174,691.5502096960449 S364.06315106201174,556.4718296960449 442.3393310620117,566.862469696045 S539.3186510620117,701.248139696045 539.3186510620117,701.248139696045 s15.23961,30.47923 99.05748,25.63026 s209.19831,-12.46877 222.35979,-29.78651 c0,0 30.47922,-103.21374 -64.422,-169.71386 L673.0116510620118,509.3675796960449 l-279.162,5.54167 z" fill="#ff8600" id="svg_52" class="selected" fill-opacity="1"/><path d="M226.56029106201174,545.0421196960449 H203.0081610620117 a4.849,4.849 0 1 1 0,-9.69793 h23.55213 a4.849,4.849 0 0 1 0,9.69793 z" fill="#cacaca" id="svg_53"/><circle cx="585.0375366210938" cy="680.4668579101562" r="15.239609718322754" fill="#fff" id="svg_54"/><path d="M577.4873910620117,605.688709696045 c-10.43377,0 -22.8902,-4.4539 -34.03985,-13.04242 c-19.67407,-15.1564 -27.93974,-37.53485 -18.42546,-49.88524 c9.51427,-12.35107 33.26122,-10.068 52.93512,5.08709 c9.50785,7.32486 16.66646,16.53032 20.15707,25.92046 c3.51124,9.44629 2.89633,17.957 -1.73177,23.9641 C592.2602310620117,603.084289696045 585.4647110620117,605.688709696045 577.4873910620117,605.688709696045 z" fill="#fff" id="svg_55"/><path d="M848.2996510620117,586.3388496960449 c-7.67629,0 -21.46419,-7.77269 -35.11578,-20.38623 c-8.18263,-7.561 -14.96158,-15.66512 -19.08808,-22.82018 c-4.19143,-7.268 -5.14627,-12.73531 -2.6883,-15.39521 s7.98375,-2.13968 15.55992,1.4645700000000001 c7.45847,3.5487900000000003 16.07235,9.66682 24.25532,17.22777 c17.2687,15.956 26.834,32.74271 21.77672,38.21606 A6.13338,6.13338 0 0 1 848.2996510620117,586.3388496960449 z" fill="#fff" id="svg_56"/><path d="M204.52549106201172,496.4438696960449 q-0.24708000000000002,0 -0.49670000000000003,-0.023000000000000007 l-50.0892,-4.65718 a5.38828,5.38828 0 0 1 -4.08,-8.2053 l28.2455,-45.53855 a5.3846,5.3846 0 0 1 4.34127,-2.54287 l37.35914,-1.64823 a5.38824,5.38824 0 0 1 5.39928,6.92811 L209.6895210620117,492.6004696960449 A5.40676,5.40676 0 0 1 204.52549106201172,496.4438696960449 z" fill="#fff" id="svg_57"/><path d="M336.5188110620117,507.11355969604494 q-0.7410000000000001,0 -1.49281,-0.07300000000000001 l-86.59429,-8.5246 a15.117750000000001,15.117750000000001 0 0 1 -13.105,-19.02042 l12.45745,-45.71 a15.04774,15.04774 0 0 1 14.05865,-11.13375 l69.88537,-2.44039 a15.20219,15.20219 0 0 1 15.545,13.36781 l5.76661,49.74724 a15.08667,15.08667 0 0 1 -0.24844000000000005,4.97175 l-1.51547,6.92743 A15.12347,15.12347 0 0 1 336.5188110620117,507.11355969604494 z" fill="#fff" id="svg_58"/><path d="M404.1018010620117,509.5191096960449 a11.26779,11.26779 0 0 1 -10.93335,-8.692 l-15.27648,-66.03031 a11.22061,11.22061 0 0 1 10.93182,-13.74968 h181.153 a11.28058,11.28058 0 0 1 8.05444,3.40841 l59.16968,61.0058 a11.22086,11.22086 0 0 1 -7.8038,19.03024 l-225.04641,5.02485 C404.2677010620117,509.5184696960449 404.1843310620117,509.5191096960449 404.1018010620117,509.5191096960449 z" fill="#fff" id="svg_59"/><path d="M176.3309725087738,429.35900969604495 l1.54633,-2.42388 s9.00522,-24.93755 133.00025,-29.0938 s239.67753,-2.07813 266.00049,20.78129 l-214.04727,-0.6927100000000004 L182.0335525087738,430.3986796960449 z" fill="#ff8600" id="svg_60" class="" fill-opacity="1"/><path d="M116.07310106201172,607.0396296960449 c-13.00759,0 -23.55213,21.70954 -23.55213,48.48968 c0,26.78009 10.54454,48.48967 23.55213,48.48967 s23.55213,-21.70958 23.55213,-48.48967 C139.62523106201172,628.7491696960449 129.08065106201173,607.0396296960449 116.07310106201172,607.0396296960449 zm1.03906,10.39065 c2.86927,0 5.19533,5.5824300000000004 5.19533,12.46877 s-2.32606,12.46877 -5.19533,12.46877 s-5.19532,-5.58247 -5.19532,-12.46877 S114.24290106201173,617.430279696045 117.11216106201172,617.430279696045 zm3.1172,38.099 c0,2.29544 -1.55082,4.15626 -3.46355,4.15626 s-3.46355,-1.8608200000000001 -3.46355,-4.15626 s1.55082,-4.15626 3.46355,-4.15626 S120.22936106201172,653.2338596960449 120.22936106201172,655.529309696045 zm-18.097,2.6675500000000003 c-4.45425,0.3440700000000001 -8.18094,-0.8814500000000001 -8.32436,-2.73727 s3.35092,-3.63922 7.80516,-3.98329 c4.4539100000000005,-0.3440700000000001 8.18061,0.8814400000000001 8.324,2.73731 S106.58622106201173,657.852789696045 102.13232106201173,658.196859696045 zm14.97984,35.43148 c-2.86926,0 -5.19532,-5.58248 -5.19532,-12.46878 s2.32606,-12.46877 5.19532,-12.46877 s5.19533,5.58244 5.19533,12.46877 S119.98143106201172,693.6283396960449 117.11216106201172,693.6283396960449 zm13.42125,-35.43148 c-4.45424,0.3440700000000001 -8.18094,-0.8814500000000001 -8.32435,-2.73727 s3.35091,-3.63922 7.80516,-3.98329 c4.4539100000000005,-0.3440700000000001 8.1806,0.8814400000000001 8.324,2.73731 S134.98732106201172,657.852789696045 130.5334110620117,658.196859696045 z" fill="#e4e4e4" id="svg_61"/><path d="M445.1101710620117,639.596989696045 c-20.65884,0 -37.40632,27.75721 -37.40632,61.99751 c0,34.24025 16.74748,61.99751 37.40632,61.99751 s37.40632,-27.75726 37.40632,-61.99751 C482.5164910620117,667.3541996960449 465.7690210620117,639.596989696045 445.1101710620117,639.596989696045 zm-22.34715,66.64992 c-6.03314,0.466 -11.0815,-1.194 -11.27565,-3.7078 s4.53915,-4.92947 10.57228,-5.39552 s11.08149,1.194 11.27564,3.70776 C433.52965106201174,703.365169696045 428.79615106201175,705.7808196960449 422.7630210620117,706.2469096960449 zm22.36914,47.30081 c-3.88652,0 -7.03719,-7.56171 -7.03719,-16.88953 s3.15067,-16.88953 7.03719,-16.88953 c3.88668,0 7.03736,7.56171 7.03736,16.88953 S449.01884106201175,753.547719696045 445.13216106201173,753.547719696045 zm-5.5636600000000005,-51.60687 c0,-3.6727000000000003 2.48113,-6.65 5.54167,-6.65 s5.54168,2.97733 5.54168,6.65 s-2.48114,6.65 -5.54168,6.65 S439.5685010620117,705.613559696045 439.5685010620117,701.9408496960449 zm5.5636600000000005,-17.827840000000002 c-3.88652,0 -7.03719,-7.56167 -7.03719,-16.88953 s3.15067,-16.88949 7.03719,-16.88949 c3.88668,0 7.03736,7.56167 7.03736,16.88949 S449.01884106201175,684.113009696045 445.13216106201173,684.113009696045 zM468.8534010620117,704.8614696960449 c-6.03313,0.466 -11.08149,-1.194 -11.27564,-3.7078 s4.53931,-4.92947 10.57245,-5.39552 s11.08132,1.194 11.27547,3.70776 S474.8865410620117,704.3953996960449 468.8534010620117,704.8614696960449 z" fill="#e4e4e4" id="svg_62"/><path d="M314.1880510620117,515.6019596960449 l8.31252,19.39587 s13.854190000000001,5.54168 22.85942,-13.16148 l-18.24772,-18.24772 z" fill="#cacaca" id="svg_63"/><path d="M302.7583410620117,520.1045796960449 c-14.89647,0 -27.01567,-8.07914 -27.01567,-18.01045 c0,-9.931000000000001 12.1192,-18.01046 27.01567,-18.01046 s27.01568,8.07948 27.01568,18.01046 C329.77402106201174,512.0254696960449 317.65481106201173,520.1045796960449 302.7583410620117,520.1045796960449 z" fill="#cacaca" id="svg_64"/><path d="M823.6789610620117,583.487469696045 l-154.877,4.52735 s-33.89425,9.50744 -37.35285,36.67155 c0,0 4.8420000000000005,22.184 17.293,22.184 s203.36548,-9.96018 203.36548,-9.96018 s12.451,-19.01488 2.07516,-32.59693 S823.6789610620117,583.487469696045 823.6789610620117,583.487469696045 z" fill="#3f3d56" id="svg_65"/><rect x="634.27099609375" y="622.1892280578613" width="181.72482299804688" height="2.0779099464416504" transform="rotate(-1.8936200141906738 -82.51257324218727,-30.941570281982273) " fill="#e4e4e4" id="svg_66"/><rect x="616.9577713012695" y="640.3727931976318" width="197.73806762695312" height="2.077549934387207" transform="rotate(-2.594089984893799 -90.48339080810531,-20.81434059143059) " fill="#e4e4e4" id="svg_67"/><rect x="603.7791137695312" y="657.5473499298096" width="212.1418914794922" height="2.0784199237823486" transform="rotate(-3.0738000869750977 -96.23223876953126,-13.795240402221681) " fill="#e4e4e4" id="svg_68"/><g id="fa69add6-ae6a-462f-9f4a-a8964149f7d7" data-name="Group 142"><path id="f4e602e9-d2b5-4192-9853-189e5cc927ef" data-name="Path 2185" d="M114.97223106201173,561.632469696045 a9.42193,9.42193 0 0 1 3.0431,-14.123 L116.04765106201171,526.068209696045 l12.737870000000001,-4.37341 l2.35384,30.31841 a9.47291,9.47291 0 0 1 -16.169,9.6202 z" fill="#ffb8b8"/><path id="e2d38235-adb3-41cf-b4a9-63352e01515a" data-name="Path 2186" d="M128.64672106201172,438.5714696960449 s8.74117,-18.34532 16.50892,-11.89662 s-10.64934,60.69632 -10.64934,60.69632 l-2.80043,52.66236 L116.94365106201172,538.5577896960449 l-4.17419,-51.30272 z" fill="#e6e6e6"/><path id="eea0d059-1974-4b26-aac7-8a2396c42a8e" data-name="Path 2187" d="M11.394531062011723,709.9793896960449 L22.352651062011716,718.849909696045 l39.42971,-38.05026 L45.60956106201172,667.7114696960449 z" fill="#ffb8b8"/><path id="a9703c69-ade6-4e5d-bca9-6a3d314fecef" data-name="Path 2188" d="M11.494381062011712,704.1387496960449 l21.581,17.46725 h0 a17.69478,17.69478 0 0 1 2.6191400000000002,24.88562 l-0.36161000000000004,0.4466200000000001 L0.0000010620117194548584,718.3391296960449 z" fill="#2f2e41"/><path id="fb949616-149f-4f99-b6d4-35f2ecdeae65" data-name="Path 2189" d="M163.69097106201173,734.603469696045 h14.09843 l6.70365,-54.38451 H163.6881410620117 z" fill="#ffb8b8"/><path id="b920e865-38ed-4b06-94ca-a4364bcce1a4" data-name="Path 2190" d="M160.09343106201172,730.0006496960449 h27.7663 a17.69479,17.69479 0 0 1 17.69479,17.69292 v0.57593 H160.09435106201173 z" fill="#2f2e41"/><path id="e64f2ddc-8714-4699-9f4e-cfc1a70d06b3" data-name="Path 2191" d="M188.4290910620117,479.6600896960449 S214.87923106201174,511.8564696960449 209.12921106201173,544.060469696045 s-10.35006,56.35123 -10.35006,56.35123 l-9.19534,72.44847 s3.45,19.73328 -1.15,24.81578 c0,0 6.9,11.98441 -5.75,16.58444 s-19.48024,-1.58626 -19.48024,-1.58626 s-9.27463,-13.361 -3.52461,-16.80632 l2.4227600000000002,-142.19279 L69.97945106201172,674.0101396960449 s-1.6929000000000003,14.63472 -13.497,14.79337 l-14.10316,10.50677 l-16.10007,-9.202 l8.05,-10.35 s-4.6,-11.5 5.75,-13.80009 L99.87965106201173,587.7596796960449 L114.82965106201172,547.5094696960449 s8.05,-31.05014 29.90014,-43.70021 V490.3500696960449 z" fill="#2f2e41"/><path id="bce97f6a-e88b-4fe5-bf4a-3ce22a01c084" data-name="Path 2192" d="M143.00480106201172,423.88481969604493 h0 a21.95964,21.95964 0 0 1 28.94465,-4.0864 l0.9555,0.63731 h0 a84.76523,84.76523 0 0 1 19.84278,40.85541 l4.30639,23.54492 L143.0038510620117,496.5438296960449 l-12.67085,-43.70022 a24.68926,24.68926 0 0 1 12.67085,-28.95787 z" fill="#e6e6e6"/><path id="b697c87b-19ec-4b06-9e7e-37987317631c" data-name="Path 2193" d="M231.8054410620117,566.6384696960449 a10.78347,10.78347 0 0 1 -6.15132,-15.34853 L210.06200106201175,532.2081696960449 l9.285,-12.30355 l21.64051,27.25739 a10.842,10.842 0 0 1 -9.18211,19.47647 z" fill="#ffb8b8"/><path id="ff802918-ea99-4deb-b868-19882644d1b6" data-name="Path 2194" d="M166.00398106201172,441.1349196960449 s-3.45,-23.00013 8.05,-21.8501 s28.75015,64.40032 28.75015,64.40032 l31.05014,51.75025 l-14.95006,8.05 l-36.80019,-46.00022 z" fill="#e6e6e6"/><path id="b2ad01c3-7822-402f-83d4-81805929538c" data-name="Path 2195" d="M187.06380106201172,407.50999969604493 H132.30165106201173 a4.25351,4.25351 0 0 1 -4.24879,-4.24879 V379.6568196960449 a31.62987,31.62987 0 1 1 63.25975,0 h0 v23.60439 A4.25351,4.25351 0 0 1 187.06380106201172,407.50999969604493 z" fill="#2f2e41"/><circle id="fe1c8106-5903-484b-8252-f0483d4636a1" data-name="Ellipse 430" cx="166.18270874023438" cy="383.77056884765625" r="23.189889907836914" fill="#ffb8b8"/><path id="e2d5a9f4-7ffc-4596-9574-3d578968164c" data-name="Path 2196" d="M198.7952010620117,382.0172596960449 H169.61073106201172 l-0.29929,-4.80775 l-1.49651,4.80775 H163.3216510620117 l-0.5929300000000001,-9.52863 l-2.96565,9.52863 h-8.69493 v-0.47209 c0,-13.79629 9.7826,-25.02065 21.81046,-25.02065 h4.11472 c12.02406,0 21.81046,11.22436 21.81046,25.02065 z" fill="#2f2e41"/><path id="aa8282a4-b0b8-48ea-8496-97297549be2f" data-name="Path 2197" d="M170.81928106201173,411.91646969604494 a7.01819,7.01819 0 0 1 -1.065,-0.08215000000000001 l-34.73715,-5.35064 V370.30285969604495 a13.936,13.936 0 0 1 13.936,-13.936 h24.3031 l-0.94418,0.9640000000000001 c-13.17126,13.40731 -3.248,35.15449 3.839,46.92553 a4.6378,4.6378 0 0 1 -0.47209,5.49606 a6.30989,6.30989 0 0 1 -4.85777,2.1669 z" fill="#2f2e41"/></g></g></svg>