<svg xmlns="http://www.w3.org/2000/svg" data-name="Layer 1" width="863.91732" height="364.20537"><rect id="backgroundrect" width="100%" height="100%" x="0" y="0" fill="none" stroke="none"/><g class="currentLayer" style=""><title>Layer 1</title><polygon points="311.959 119.745 0 119.745 0 222.156 11.817 222.156 11.817 248.941 38.601 222.156 311.959 222.156 311.959 119.745" fill="#f0f0f0" id="svg_1"/><rect x="8.66553020477295" y="129.7181396484375" width="294.62811279296875" height="81.92868041992188" fill="#fff" id="svg_2"/><rect x="34.72148132324219" y="154.42552185058594" width="141.85589599609375" height="4.304969787597656" fill="#f0f0f0" id="svg_3"/><rect x="34.72148132324219" y="169.31776428222656" width="247.242919921875" height="4.304969787597656" fill="#f0f0f0" id="svg_4"/><rect x="34.72148132324219" y="184.2100372314453" width="247.0008087158203" height="4.304969787597656" fill="#f0f0f0" id="svg_5"/><path d="M524.0314039404296,351.06945165039065 s1.487,-31.15875 31.97119,-27.537 " fill="#f0f0f0" id="svg_6"/><circle cx="515.41796875" cy="306.1608581542969" r="15.257100105285645" fill="#f0f0f0" id="svg_7"/><rect x="512.9354248046875" y="331.8529357910156" width="4.306719779968262" height="30.147029876708984" fill="#f0f0f0" id="svg_8"/><circle cx="666.9295043945312" cy="180.07337951660156" r="123.2966537475586" fill="#3f3d56" id="svg_9"/><path d="M589.3066639404296,189.97084165039064 a32.62688,32.62688 0 0 1 50.081,0 a36.26372,36.26372 0 1 0 -51.27085,-1.18987 Q588.6978439404297,189.38963165039064 589.3066639404296,189.97084165039064 z" fill="#fff" id="svg_10"/><path d="M687.2186639404297,189.97084165039064 a32.627,32.627 0 0 1 50.08092,0 a36.26371,36.26371 0 1 0 -51.2708,-1.18987 Q686.6098339404297,189.38963165039064 687.2186639404297,189.97084165039064 z" fill="#fff" id="svg_11"/><circle cx="601.9765014648438" cy="151.39215087890625" r="12.474340438842773" fill="#3f3d56" id="svg_12"/><circle cx="699.885009765625" cy="151.39215087890625" r="12.474340438842773" fill="#3f3d56" id="svg_13"/><circle cx="578.0834350585938" cy="210.89752197265625" r="14.50547981262207" fill="#ffa663" id="svg_14"/><circle cx="744.896484375" cy="210.89752197265625" r="14.505499839782715" fill="#ffa663" id="svg_15"/><polygon points="661.49 181.886 650.611 229.029 668.742 210.898 661.49 181.886" fill="#ffa663" id="svg_16"/><polygon points="717.39 363.205 705.038 352.839 705.326 363.205 701.49 363.205 701.183 352.244 684.507 363.205 677.526 363.205 701.059 347.737 700.147 315.258 699.466 290.728 703.293 290.623 703.984 315.258 704.894 347.708 723.354 363.205 717.39 363.205" fill="#3f3d56" id="svg_17"/><polygon points="659.363 363.205 647.012 352.839 647.3 363.205 643.474 363.205 643.167 352.244 626.49 363.205 619.509 363.205 643.033 347.737 642.122 315.258 641.441 290.728 645.276 290.623 645.967 315.258 646.868 347.708 665.328 363.205 659.363 363.205" fill="#3f3d56" id="svg_18"/><path d="M668.7426639404297,47.71082165039064 c-3.3831,0 -6.36764,2.628 -8.36294,6.66445 c-1.7587200000000003,-6.06969 -5.45374,-10.29078 -9.7689,-10.29078 a6.56326,6.56326 0 0 0 -0.8709400000000002,0.1463 c-1.6587100000000001,-6.4805 -5.51368,-11.02542 -10.00816,-11.02542 c-6.00841,0 -10.8791,8.118 -10.8791,18.13187 s4.87073,18.13187 10.8791,18.13187 a6.56119,6.56119 0 0 0 0.8709300000000001,-0.14629000000000003 c1.6587100000000001,6.4805 5.51369,11.02541 10.00817,11.02541 c3.3831,0 6.36764,-2.6279500000000002 8.36294,-6.66444 c1.75876,6.06971 5.45374,10.29077 9.7689,10.29077 c6.00841,0 10.8791,-8.118 10.8791,-18.13187 S674.7511039404297,47.71082165039064 668.7426639404297,47.71082165039064 z" fill="#3f3d56" id="svg_19"/><path d="M550.6819439404297,183.90969165039064 l-67.92039,-11.01653 c-3.4226900000000002,-0.55515 -6.90789,-1.11141 -10.34147,-0.6282000000000001 s-6.87069,2.1737 -8.62107,5.16688 a8.651,8.651 0 0 0 9.14985,12.853 c-3.70741,-0.12023000000000002 -7.60411,-0.19978000000000004 -10.894,1.51369 s-5.61946,5.87559 -4.01553,9.22024 a8.27667,8.27667 0 0 0 1.9192200000000001,2.4289 a17.60582,17.60582 0 0 0 18.52289,3.14128 c-2.50047,3.58582 -7.46212,4.11838 -11.7541,4.94866 s-9.25362,3.258 -9.41312,7.62664 c-0.17922000000000002,4.90869 5.662640000000001,7.5176300000000005 10.47189,8.51687 A137.41687,137.41687 0 0 0 544.6066639404297,221.4197916503906 a30.98,30.98 0 0 0 7.737,-3.9504900000000003 a17.43266,17.43266 0 0 0 -7.05356,-30.96345 " fill="#3f3d56" id="svg_20"/><path d="M843.8487139404297,239.58186165039064 a137.41884,137.41884 0 0 0 -51.17256,-57.63676 a30.97519,30.97519 0 0 0 -7.80737,-3.80966 a17.43272,17.43272 0 0 0 -20.50879,24.24615 l-5.31525,-2.74921 Q775.0518939404296,230.08583165039062 791.0586639404297,260.5392516503906 c1.61312,3.06929 3.26318,6.18918 5.71292,8.64309 s5.86648,4.18514 9.31075,3.78525 a8.6006,8.6006 0 0 0 6.77916,-12.299900000000001 a16.64264,16.64264 0 0 0 5.752,5.05979 c3.34648,1.59972 8.07321,0.9603 9.7823,-2.33177 a8.27455,8.27455 0 0 0 0.7880900000000001,-2.99368 a17.60592,17.60592 0 0 0 -8.62117,-16.69248 c4.36853,-0.15650000000000003 7.77622,3.48909 11.01912,6.42052 c3.24327,2.9314299999999998 8.1652,5.43808 11.75289,2.94008 C847.3657839404297,250.26331165039062 845.9402739404297,244.02623165039063 843.8487139404297,239.58186165039064 z" fill="#3f3d56" id="svg_21"/><polygon points="55.757 0 506 0 506 147.807 488.945 147.807 488.945 186.463 450.289 147.807 55.757 147.807 55.757 0" fill="#cacaca" id="svg_22"/><rect x="68.26380920410156" y="14.393349647521973" width="425.22943115234375" height="118.24561309814453" fill="#fff" id="svg_23"/><rect x="102.45877075195312" y="48.91590881347656" width="204.73707580566406" height="6.213260173797607" fill="#ff8600" id="svg_24" class="" fill-opacity="1"/><rect x="102.45877075195312" y="70.40953826904297" width="356.8395080566406" height="6.213260173797607" fill="#ff8600" id="svg_25" class="" fill-opacity="1"/><rect x="102.45877075195312" y="91.90316009521484" width="356.4900817871094" height="6.213260173797607" fill="#ff8600" id="svg_26" class="selected" fill-opacity="1"/><path d="M862.9173239404297,364.2053716503906 h-381 a1,1 0 0 1 0,-2 h381 a1,1 0 0 1 0,2 z" fill="#cacaca" id="svg_27"/></g></svg>