<svg xmlns="http://www.w3.org/2000/svg" data-name="Layer 1" width="910.90802" height="704.99598"><rect id="backgroundrect" width="100%" height="100%" x="0" y="0" fill="none" stroke="none"/><g class="currentLayer" style=""><title>Layer 1</title><ellipse cx="697.3169555664062" cy="542.7703857421875" rx="48.502750396728516" ry="98.9652099609375" fill="#3f3d56" id="svg_1"/><path d="M692.8379200097656,704.7605134692383 c19.42584,-116.55145 0.19556000000000004,-232.68182 -0.0009100000000000003,-233.84027 l-3.77869,0.6400800000000001 c0.19556000000000004,1.15289 19.31543,116.67309 -0.0009200000000000004,232.57135 z" fill="#cacaca" id="svg_2"/><rect x="549.4166259765625" y="1567.4013061523438" width="3.8331899642944336" height="49.739559173583984" transform="rotate(-61.8583984375 -268.853332519531,959.8592529296876) " fill="#cacaca" id="svg_3"/><rect x="495.6240539550781" y="1029.8838500976562" width="49.741268157958984" height="3.8331899642944336" transform="rotate(-28.157960891723633 -345.98446655273443,387.63055419921875) " fill="#cacaca" id="svg_4"/><ellipse cx="813.8546752929688" cy="386.143798828125" rx="94.86566162109375" ry="193.5643310546875" fill="#e6e6e6" id="svg_5"/><path d="M803.2880600097657,702.6769934692383 c37.944,-227.6604 0.38275000000000003,-454.49169 -0.0009200000000000004,-456.75628 l-3.77869,0.6400700000000001 c0.38275000000000003,2.259 37.83362,228.48017 -0.0009100000000000003,455.48737 z" fill="#cacaca" id="svg_6"/><rect x="840.5967330932617" y="1377.2536315917969" width="3.8331899642944336" height="97.287109375" transform="rotate(-61.8583984375 -73.49109649658207,957.6264038085938) " fill="#cacaca" id="svg_7"/><rect x="700.6500549316406" y="924.9745483398438" width="97.28717041015625" height="3.8331899642944336" transform="rotate(-28.157419204711914 -257.2531433105469,435.6225280761719) " fill="#cacaca" id="svg_8"/><path d="M593.5295100097657,703.2852334692383 H88.93332000976562 a7.00818,7.00818 0 0 1 -7,-7 V377.43953346923826 a7.00785,7.00785 0 0 1 7,-7 H593.5295100097657 a7.00817,7.00817 0 0 1 7,7 v318.8457 A7.00848,7.00848 0 0 1 593.5295100097657,703.2852334692383 z" fill="#e4e4e4" id="svg_9"/><path d="M135.3376200097656,409.0772234692383 a3.00328,3.00328 0 0 0 -3,3 V661.6485134692383 a3.00328,3.00328 0 0 0 3,3 H547.1252100097656 a3.00328,3.00328 0 0 0 3,-3 V412.0772234692383 a3.00328,3.00328 0 0 0 -3,-3 z" fill="#fff" id="svg_10"/><path d="M551.1249600097656,473.35720346923824 V457.5423834692383 H492.8913100097657 V408.0771734692383 H477.0763700097656 v49.46521 H373.4010800097657 V408.0771734692383 H357.5866300097656 v49.46521 H197.68086000976564 V408.0771734692383 H181.8659200097656 v49.46521 H126.57149000976563 v15.814820000000001 h55.29443 v61.50214 H126.57149000976563 v15.814820000000001 h55.29443 v65.89514 H126.57149000976563 v15.814820000000001 h140.519 V665.6479934692383 h15.81494 V632.3841234692383 h74.68116 V665.6479934692383 h15.81445 V632.3841234692383 H551.1249600097656 V616.5693034692383 H373.4010800097657 V550.6741634692382 H551.1249600097656 V534.8593434692383 H492.8913100097657 V473.35720346923824 zm-193.53833,0 v19.32928 H197.68086000976564 V473.35720346923824 zm-159.90577,35.1441 H357.5866300097656 v26.358 H197.68086000976564 zm0,108.068 V550.6741634692382 h69.40967 v65.89514 zm159.90577,0 H282.9054700097656 V550.6741634692382 h74.68116 zm119.48974,-81.71 H373.4010800097657 V473.35720346923824 H477.0763700097656 z" fill="#e6e6e6" id="svg_11"/><circle cx="365.49383544921875" cy="544.7667846679688" r="20.207820892333984" fill="#ff8600" id="svg_12" class="selected" fill-opacity="1"/><polygon points="910.513 704.996 0 704.996 0 702.814 910.908 702.814 910.513 704.996" fill="#cacaca" id="svg_13"/><circle cx="367.9160461425781" cy="300.0668640136719" r="124.65540313720703" fill="#ff8600" id="svg_14" class="" fill-opacity="1"/><polygon points="369.135 502.707 329.753 435.433 290.371 368.159 368.323 367.69 446.275 367.221 407.705 434.964 369.135 502.707" fill="#ff8600" id="svg_15" class="" fill-opacity="1"/><circle cx="368.9166564941406" cy="299.28271484375" r="44.724491119384766" fill="#fff" id="svg_16"/><path d="M365.0326800097656,0.6405234692382749 s-26.67361,-7.51371 -34.563,28.92773 s-2.87842,31.85 -2.87842,31.85 l59.546,-6.95017 S405.04312000976563,11.723203469238285 365.0326800097656,0.6405234692382749 z" fill="#2f2e41" id="svg_17"/><path d="M326.2414100097656,160.51022346923827 s-40.24153,1.8627500000000001 -33.27269,17.65871 q0.7389200000000001,1.6748900000000002 1.3758400000000002,3.1384600000000002 a282.52157,282.52157 0 0 0 17.16391,33.22306 l24.73294,40.97977 l9,-5 l-25.32671,-65.837 l22.76474,-1.85834 z" fill="#ffb6b6" id="svg_18"/><path d="M432.34463000976564,177.2397934692383 l13.00843,28.33978 s9.75628,9.75632 20.44177,48.78159 s13.00842,37.63153 13.00842,37.63153 l-10.56184,3.51753 l-43.33025,-78.78056 l-21.371,-26.946 l6.50421,-14.40219 z" fill="#ffb6b6" id="svg_19"/><path d="M416.54874000976565,144.71870346923828 l18.69267,34.79152 s42.38015,83.27659 38,83 c-4.92373,-0.31093000000000004 -18.75364,5.42831 -23,11 c-2.04957,2.68926 -32,-63 -42.51988,-77.68693 L384.9567600097656,178.16899346923827 s-64.63613,10.8788 -64.71535,7.34123 c-0.03880000000000001,-1.7328400000000002 21.39973,39.8423 17,38 c-5.012,-2.0986700000000003 -16.80244,8.11375 -22,6 c-2.14452,-0.8721400000000001 -17.29757,-37.61145 -23.43159,-52.6662 a8.14809,8.14809 0 0 1 3.76974,-10.31057 c4.60991,-2.39749 68.66185,-17.02323 68.66185,-17.02323 l-1.12019,-5.7206600000000005 l4.6459,-9.29174 z" fill="#2f2e41" id="svg_20"/><circle cx="649.3486175537109" cy="652.4679565429688" r="18.118900299072266" transform="rotate(-80.78267669677734 144.46958923339838,515.7100219726562) " fill="#ffb6b6" id="svg_21"/><path d="M418.2414100097657,147.51022346923827 c1.00049,3.00146 -5.47911,4.7255400000000005 -14.51067,3.0390800000000002 c-7.8142700000000005,-1.4588 -16.36737,-3.19171 -23.11322,-4.59476 c-7.2243,-1.50525 -12.3858,-2.62954 -12.3858,-2.62954 s-1.85834,11.614650000000001 -7.898,10.22088 c-5.20334,-1.1986400000000001 -20.753,-55.51343 -24.95758,-70.52423 a5.2218,5.2218 0 0 1 2.309,-5.86774 l21.357,-13.041 s14.71811,-5.05471 20.08408,-5.19871 s14.65772,-1.5377800000000001 14.65772,-1.5377800000000001 s10.68548,0.92918 12.54388,8.82713 s9.61285,54.72575 9.75629,65.9713 C416.2414100097657,144.51022346923827 415.2414100097657,138.51022346923827 418.2414100097657,147.51022346923827 z" fill="#cacaca" id="svg_22"/><path d="M367.10764000976565,15.982743469238287 s-7.51371,19.9113 -25.92228,28.17636 l-3.00546,-17.65719 z" fill="#2f2e41" id="svg_23"/><ellipse cx="377.988037109375" cy="32.288780212402344" rx="2.5552399158477783" ry="4.878159999847412" fill="#ffb6b6" id="svg_24"/><path d="M352.73030000976564,260.1560434692383 l-35.91687,16.5124 l-0.20887,-0.45428 a15.38729,15.38729 0 0 1 7.5521,-20.407 l0.0008900000000000003,-0.00041000000000000015 l21.93684,-10.08514 z" fill="#2f2e41" id="svg_25"/><path d="M462.8869400097657,293.1451234692383 l22.03165,-9.8763 l0.0008900000000000003,-0.00040000000000000013 a15.3873,15.3873 0 0 1 20.33383,7.74694 l0.20451000000000003,0.45627 l-36.07222,16.17022 z" fill="#2f2e41" id="svg_26"/><polygon points="403.241 104.51 399.035 150.771 406.512 151.124 403.241 104.51" opacity="0.2" id="svg_27"/><path d="M373.9222900097657,190.9319934692383 a9.13591,9.13591 0 0 0 -1.99925,-13.8654 L355.76421000976563,95.44064346923827 l-18.55613,7.09923 l21.71849,78.00329 A9.1854,9.1854 0 0 0 373.9222900097657,190.9319934692383 z" fill="#ffb6b6" id="svg_28"/><path d="M359.8523800097656,109.19763346923827 L339.47701000976565,112.78639346923828 a4.09641,4.09641 0 0 1 -4.80539,-3.92235 l-0.56235,-20.61872 a11.37649,11.37649 0 0 1 22.41945,-3.88108 l6.49978,19.50525 a4.0964,4.0964 0 0 1 -3.17607,5.32814 z" fill="#cacaca" id="svg_29"/><path d="M389.54447000976563,189.4959134692383 a9.13584,9.13584 0 0 0 2.55241,-13.7743 l10.86868,-82.49709 l-19.8527,0.77413 l-4.441,80.84851 a9.1854,9.1854 0 0 0 10.87258,14.64875 z" fill="#ffb6b6" id="svg_30"/><path d="M402.4265200097657,107.5659934692383 l-20.45025,-3.13434 a4.09642,4.09642 0 0 1 -3.29389,-5.25613 l6.07895,-19.71025 a11.37649,11.37649 0 0 1 22.48008,3.5129 l-0.09800000000000003,20.55948 a4.09641,4.09641 0 0 1 -4.71689,4.02834 z" fill="#cacaca" id="svg_31"/></g></svg>