<svg xmlns="http://www.w3.org/2000/svg" data-name="Layer 1" width="904.3615112304688" height="586.4055786132812" style=""><rect id="backgroundrect" width="100%" height="100%" x="0" y="0" fill="none" stroke="none"/><g class="currentLayer" style=""><title>Layer 1</title><path d="M28.662125615234373,450.0640140478515 c4.48183,-45.74693 31.57027,-91.41208 74.6711,-107.3851 a211.78287,211.78287 0 0 0 3.80025,145.35351 c7.15367,17.90139 16.97423,37.0672 11.16353,55.44857 c-3.61532,11.43741 -12.956620000000001,20.35944 -23.50968,26.061 c-10.55372,5.7016 -22.35566,8.595650000000001 -34.01041,11.43411 l-2.257,1.96793 C38.817935615234376,541.4145840478516 24.180285615234368,495.81094404785154 28.662125615234373,450.0640140478515 z" fill="#f0f0f0" id="svg_1"/><path d="M103.78725561523439,343.52986404785156 c-24.3354,28.72351 -39.652,65.40748 -42.33,103.01475 c-0.5790000000000001,8.1306 -0.4587,16.42884 1.52256,24.37642 a44.70919,44.70919 0 0 0 11.65642,20.44014 c5.15372,5.37408 11.04774,10.27436 14.80536,16.80764 c3.9607200000000002,6.88643 4.31282,14.819 1.9194499999999999,22.30586 c-2.92836,9.1604 -8.97355,16.7223 -15.14224,23.91176 c-6.84915,7.98252 -14.08974,16.16536 -16.818,26.58246 c-0.3305700000000001,1.26217 -2.26971,0.6754400000000002 -1.9396400000000003,-0.5848300000000001 c4.74673,-18.124 21.94191,-28.79677 29.84688,-45.21542 c3.6886,-7.66125 5.09074,-16.48052 1.23988,-24.36584 c-3.36741,-6.89536 -9.44106,-11.95377 -14.70634,-17.35 c-5.52863,-5.66617 -9.81771,-11.92932 -12.14213,-19.56139 c-2.37774,-7.80719 -2.8227,-16.11821 -2.45413,-24.22795 a175.619,175.619 0 0 1 11.43083,-53.685340000000004 a184.22708,184.22708 0 0 1 31.73151,-53.93217 c0.8406300000000001,-0.9922099999999999 2.21479,0.49823 1.37966,1.48395 z" fill="#fff" id="svg_2"/><path d="M61.682755615234385,434.27459404785156 a27.15836,27.15836 0 0 1 -21.40734,-27.90091 a1.01382,1.01382 0 0 1 2.02582,0.04830000000000001 a25.148,25.148 0 0 0 19.96635,25.913 c1.27568,0.26837000000000005 0.6835500000000001,2.20648 -0.5848300000000001,1.93965 z" fill="#fff" id="svg_3"/><path d="M71.66416561523437,488.98046404785157 a52.34557,52.34557 0 0 0 22.58173,-30.7462 c0.3350000000000001,-1.2610000000000001 2.27427,-0.6746100000000002 1.9396400000000003,0.5848300000000001 a54.44728,54.44728 0 0 1 -23.56337,31.94644 c-1.1056300000000001,0.6954200000000001 -2.05763,-1.09342 -0.9580000000000001,-1.7850700000000002 z" fill="#fff" id="svg_4"/><path d="M80.02934561523438,378.1922740478516 a15.37292,15.37292 0 0 0 14.54413,-1.119 c1.09627,-0.7090900000000001 2.04714,1.08059 0.9580000000000001,1.7850700000000002 a17.22664,17.22664 0 0 1 -16.087,1.27357 a1.047,1.047 0 0 1 -0.6774100000000001,-1.26224 a1.01808,1.01808 0 0 1 1.26224,-0.6774100000000001 z" fill="#fff" id="svg_5"/><path d="M238.0134656152344,420.6683140478516 c-0.6719400000000002,0.46224 -1.3438800000000002,0.92448 -2.0162,1.40385 a202.453,202.453 0 0 0 -25.35041,20.8777 c-0.6179100000000001,0.58057 -1.23537,1.17825 -1.83531,1.77536 a213.4309,213.4309 0 0 0 -44.68323,64.63776 a207.26687,207.26687 0 0 0 -10.58392,29.66048 c-3.82564,14.00525 -6.85927,29.49489 -14.85286,41.07746 a35.55812,35.55812 0 0 1 -2.68,3.49066 L61.09575561523437,585.5448340478515 c-0.17248000000000002,-0.08100000000000002 -0.3453500000000001,-0.14500000000000002 -0.5186700000000001,-0.22600000000000003 l-2.98759,0.21475000000000002 c0.10637,-0.533 0.22814000000000004,-1.0835 0.3345100000000001,-1.6164900000000002 c0.06041000000000001,-0.30943000000000004 0.13752,-0.6193000000000001 0.19793000000000005,-0.9287400000000001 c0.04557000000000001,-0.20642000000000002 0.09200000000000003,-0.41300000000000003 0.12128000000000001,-0.6018600000000001 c0.014910000000000001,-0.06876000000000003 0.030650000000000007,-0.13755 0.04600000000000001,-0.18932000000000002 c0.029310000000000006,-0.18888000000000002 0.07660000000000002,-0.36121000000000003 0.10636000000000001,-0.533 q1.00829,-4.61864 2.085,-9.23916 c-0.0004400000000000001,-0.017110000000000004 -0.0004400000000000001,-0.017110000000000004 0.0158,-0.034650000000000014 c5.5293,-23.45682 13.06545,-46.65811 23.88353,-67.978 c0.32569000000000004,-0.6413300000000001 0.6501000000000001,-1.29975 1.01,-1.9420000000000002 A197.78,197.78 0 0 1 102.44675561523437,475.0699540478515 a174.84769,174.84769 0 0 1 11.29281,-13.61835 a145.39679,145.39679 0 0 1 35.6617,-28.19346 c26.4996,-14.88715 57.46538,-21.13354 86.4069,-13.21642 C236.54841561523438,420.2447740478516 237.27275561523436,420.4481540478515 238.0134656152344,420.6683140478516 z" fill="#f0f0f0" id="svg_6"/><path d="M237.86983561523436,421.6235440478515 c-36.724,8.28252 -71.03976,28.35094 -95.82017,56.7659 c-5.35746,6.1432400000000005 -10.25754,12.84133 -13.46061,20.37989 a44.70911,44.70911 0 0 0 -2.99937,23.33828 c0.8793900000000001,7.39379 2.63513,14.855 1.70188,22.33381 c-0.9836900000000001,7.88305 -5.47849,14.42874 -11.89708,18.96561 c-7.85333,5.551 -17.23287,7.94913 -26.48677,9.97554 c-10.27469,2.24993 -20.98253,4.42413 -29.43272,11.099 c-1.02386,0.8087500000000001 -2.2189,-0.8272200000000001 -1.19659,-1.6347500000000001 c14.70188,-11.61312 34.857,-9.78206 51.05387,-18.1321 c7.55775,-3.89629 13.98709,-10.0938 15.65989,-18.70826 c1.4628,-7.533 -0.3411600000000001,-15.22859 -1.29626,-22.70727 c-1.00288,-7.85274 -0.6566200000000002,-15.43583 2.0825,-22.92908 c2.802,-7.66517 7.4505,-14.56894 12.62741,-20.82222 a175.61909,175.61909 0 0 1 41.44916,-35.98259 A184.22707,184.22707 0 0 1 237.66175561523437,419.60804404785154 c1.26856,-0.28611000000000003 1.46841,1.73126 0.20813,2.0155 z" fill="#fff" id="svg_7"/><path d="M149.61718561523435,468.7283340478516 a27.15837,27.15837 0 0 1 -0.29429,-35.166 c0.8390000000000001,-0.99754 2.42856,0.25939 1.58843,1.25826 a25.14805,25.14805 0 0 0 0.3406100000000001,32.71117 c0.8570000000000001,0.98232 -0.7826700000000001,2.17329 -1.6347500000000001,1.19659 z" fill="#fff" id="svg_8"/><path d="M124.65004561523438,518.4173840478516 a52.34551,52.34551 0 0 0 36.54158,-10.95336 c1.02669,-0.8050900000000001 2.222,0.8306300000000001 1.19659,1.6347500000000001 a54.44724,54.44724 0 0 1 -38.048,11.32067 c-1.3014800000000002,-0.11041000000000001 -0.98459,-2.11187 0.3098200000000001,-2.00206 z" fill="#fff" id="svg_9"/><path d="M198.03130561523437,434.9956340478516 a15.373,15.373 0 0 0 12.28639,7.86312 c1.30223,0.09386000000000003 0.98393,2.09531 -0.30983000000000005,2.00206 a17.22664,17.22664 0 0 1 -13.61131,-8.66859 a1.047,1.047 0 0 1 0.21908000000000002,-1.41567 a1.01807,1.01807 0 0 1 1.41567,0.21908000000000002 z" fill="#fff" id="svg_10"/><path d="M677.7030056152344,40.137774047851565 c-1.11853,-3.30279 -15.14533,-14.52982 -6.55011,-16.41685 l7.04864,9.39857 l32.40662,-32.406 l3.25928,3.2593 z" fill="#ff8600" id="svg_11" class="" fill-opacity="1"/><path d="M677.7030056152344,150.33177404785158 c-1.11853,-3.30276 -15.14533,-14.52982 -6.55011,-16.41684 l7.04864,9.39859 l32.40662,-32.406 l3.25928,3.25928 z" fill="#ff8600" id="svg_12" class="" fill-opacity="1"/><path d="M677.7030056152344,262.0999240478516 c-1.11853,-3.30277 -15.14533,-14.52979 -6.55011,-16.41684 l7.04864,9.39859 l32.40662,-32.406 l3.25928,3.25928 z" fill="#ff8600" id="svg_13" class="" fill-opacity="1"/><circle cx="647.8617553710938" cy="161.73826599121094" r="10" fill="#3f3d56" id="svg_14"/><circle cx="647.8617553710938" cy="52.738258361816406" r="10" fill="#3f3d56" id="svg_15"/><rect x="743.3615112304688" y="29.738189697265625" width="161" height="2" fill="#3f3d56" id="svg_16"/><circle cx="652.8617553710938" cy="277.9322509765625" r="10" fill="#3f3d56" id="svg_17"/><rect x="743.3615112304688" y="139.93202209472656" width="161" height="2" fill="#3f3d56" id="svg_18"/><rect x="743.3615112304688" y="251.70008850097656" width="161" height="2" fill="#3f3d56" id="svg_19"/><polygon points="702.96 277 652.96 277 652.96 226 686.96 226 686.96 228 654.96 228 654.96 275 700.96 275 700.96 252 702.96 252 702.96 277" fill="#3f3d56" id="svg_20"/><polygon points="702.96 165 652.96 165 652.96 114 686.96 114 686.96 116 654.96 116 654.96 163 700.96 163 700.96 140 702.96 140 702.96 165" fill="#3f3d56" id="svg_21"/><polygon points="702.96 51 652.96 51 652.96 0 686.96 0 686.96 2 654.96 2 654.96 49 700.96 49 700.96 26 702.96 26 702.96 51" fill="#3f3d56" id="svg_22"/><path d="M376.50475561523433,181.77164404785157 s-13.36292,56.4212 2.9695400000000003,56.4212 S434.4107556152344,174.34777404785154 434.4107556152344,174.34777404785154 L421.04775561523434,158.01532404785155 l-23.985,33.29993 l-1.2561,-16.96747 z" fill="#a0616a" id="svg_23"/><circle cx="430.84991455078125" cy="163.80056762695312" r="13" fill="#a0616a" id="svg_24"/><polygon points="365.175 566.048 382.478 566.047 390.711 499.301 365.171 499.302 365.175 566.048" fill="#a0616a" id="svg_25"/><path d="M364.56503561523436,584.0995940478516 l53.2129,-0.0020000000000000005 v-0.6730000000000002 a20.713070000000002,20.713070000000002 0 0 0 -20.71194,-20.71162 H397.0647556152344 l-9.72,-7.3741200000000005 l-18.13541,7.37524 l-4.64513,0.00016000000000000004 z" fill="#2f2e41" id="svg_26"/><polygon points="179.038 544.459 194.521 552.185 231.693 496.14 208.841 484.736 179.038 544.459" fill="#a0616a" id="svg_27"/><path d="M170.4311056152344,560.3383040478516 l47.61317,23.76129 l0.30052000000000006,-0.60213 a20.713070000000002,20.713070000000002 0 0 0 -9.28291,-27.781 l-0.0011500000000000004,-0.0005700000000000002 l-5.404,-10.93862 l-19.52019,-1.49967 l-4.15631,-2.07422 z" fill="#2f2e41" id="svg_28"/><rect y="584.1648559570312" width="569.8499145507812" height="2.24072003364563" fill="#ccc" id="svg_29"/><path d="M253.29815561523435,284.12787404785155 s-6.91528,83.1485 -8.4,100.9657 a126.70952,126.70952 0 0 1 -7.42383,32.66492 s-2.9695400000000003,5.93908 -2.9695400000000003,11.87817 l-33.65482,61.16389 s-10.28424,7.55932 -8.7995,13.4984 s-6.2005,9.5016 -6.2005,9.5016 l35.44159,6.83086 s-1.4847700000000001,-4.45428 2.9695400000000003,-5.93908 s8,-14.36292 8,-14.36292 l49.75629,-81.08612 L317.6517556152344,345.0048640478516 s20.78677,66.8146 25.24106,74.23843 c0,0 16.33246,83.147 19.302,90.57092 s4.45432,7.42383 2.9695400000000003,10.39337 s-1.4847700000000001,5.93909 0,7.42383 s29.69538,0 29.69538,0 l-7.42386,-105.41858 L374.0729956152344,296.00742404785154 l-68.29937,-20.78677 z" fill="#2f2e41" id="svg_30"/><circle cx="320.1669921875" cy="54.45159149169922" r="31.180139541625977" fill="#a0616a" id="svg_31"/><path d="M377.0425156152344,131.19809404785155 l-37.118,-22.48858 s-1.02884,-13.9648 -11.60471,-14.6219 c-5.30952,-0.32989000000000007 -13.27738,-0.8342700000000001 -25.23451,-1.6052 c-2.527,-0.16293000000000005 -4.23227,13.662230000000001 -7.12824,13.47462 l-39.18082,10.39338 l5.93909,100.96426 s-8.9086,40.08878 -5.93909,47.5126 s-7.42383,10.39338 -4.45432,11.87815 s0,11.87814 0,11.87814 s57.906,29.69537 121.751,7.42383 l-5.93909,-19.302 a15.58023,15.58023 0 0 0 -2.9695400000000003,-14.84769 s5.93909,-8.9086 -1.4847700000000001,-16.33246 c0,0 2.9695400000000003,-13.36291 -4.45432,-19.302 l-1.4847700000000001,-20.78677 l4.45432,-10.39338 z" fill="#e6e6e6" id="svg_32"/><path d="M293.11065561523435,72.26393404785156 l-0.87158,-2.02441 c-0.11230000000000001,-0.26172 -11.13916,-26.32911 -1.36523,-42.40821 c4.52441,-7.44384 12.75146,-11.64648 24.45166,-12.49023 c18.30713,-1.32373 30.83691,3.019 37.251,12.89844 a11.07543,11.07543 0 0 1 -9.335,17.061 h-0.24609000000000003 l-3.36377,-4.36767 l-0.19580000000000003,0.42480000000000007 c-1.21778,2.63477 -4.01465,4.07715 -7.29053,3.7612300000000003 c-0.55713,-0.04000000000000001 -1.05078,0.4409200000000001 -1.44726,1.47022 a2.6152800000000003,2.6152800000000003 0 0 1 -1.9575200000000001,1.814 c-2.42041,0.47119 -5.87061,-2.57764 -7.415,-4.09717 a2.47811,2.47811 0 0 1 -1.15528,1.70117 c-1.62744,0.9390000000000001 -4.16015,-0.28759 -4.8872,-0.6782200000000002 c-5.79151,1.23047 -9.54053,0.90137 -11.14649,-0.97705 c-1.08887,7.70361 -3.42578,21.56982 -6.228,22.33838 a1.40089,1.40089 0 0 1 -1.52929,-0.66846 c-0.6748100000000001,-0.8760000000000001 -1.27783,-1.3125 -1.6543,-1.18994 c-0.9116200000000001,0.29000000000000004 -1.44971,3.292 -1.52685,5.22949 z" fill="#2f2e41" id="svg_33"/><path d="M360.71005561523435,132.68290404785154 l14.81131,-2.40638 a72.31352,72.31352 0 0 1 20.82315,38.04084 c4.45431,23.75628 5.939,28.2106 5.939,28.2106 l-35.63443,8.90857 l-19.302,-37.11924 z" fill="#e6e6e6" id="svg_34"/><rect x="473.9722900390625" y="1024.0892333984375" width="116.39452362060547" height="234.31056213378906" transform="rotate(-85.48966217041016 -22.85273933410645,753.634765625) " fill="#fff" id="svg_35"/><path d="M319.9427556152344,172.57237404785155 c-5.71637,-4.08217 -12.974,-4.37733 -15.74644,-4.31865 c0.8458100000000001,2.64018 3.4743500000000003,9.41156 9.19058,13.49552 c5.7302800000000005,4.09245 12.978909999999999,4.37863 15.747160000000001,4.32149 C328.2886156152344,183.43149404785157 325.65986561523437,176.65734404785155 319.9427556152344,172.57237404785155 z" fill="#ff8600" id="svg_36" class="" fill-opacity="1"/><path d="M342.49332561523437,246.40723404785155 l-37.507,-2.95868 a8.4653,8.4653 0 1 0 -1.33141,16.87817 h0 l37.507,2.95868 a8.4653,8.4653 0 0 0 1.33141,-16.87817 z" fill="#ff8600" id="svg_37" class="" fill-opacity="1"/><path d="M519.3636556152344,170.7298940478516 l-210.29,-16.59005 a18.68264,18.68264 0 0 0 -20.0917,17.15915 L280.89449561523435,273.7497740478516 a18.69345,18.69345 0 0 0 17.16161,20.1014 l210.29,16.59006 a18.68261,18.68261 0 0 0 20.0917,-17.15915 l7.68556,-97.37532 l0.15463000000000002,-1.98944 l0.24481000000000003,-3.0957500000000002 A18.68267,18.68267 0 0 0 519.3636556152344,170.7298940478516 zm-6.20967,89.13782 l-1.33248,16.87858 a11.31529,11.31529 0 0 1 -12.14159,10.36082 l-28.13346,-2.21676 A11.31528,11.31528 0 0 1 461.18563561523433,272.74877404785155 l1.3325200000000001,-16.87865 A11.31941,11.31941 0 0 1 474.6597556152344,245.50928404785157 l28.12371,2.21931 A11.32876,11.32876 0 0 1 513.1539856152343,259.86771404785156 zM294.0204256152344,251.0665740478516 a10.34611,10.34611 0 0 1 11.11422,-9.49093 l37.50561,2.96061 a10.34238,10.34238 0 1 1 -1.60873,20.6221 l-0.019340000000000003,0.004920000000000002 l-37.50561,-2.96061 A10.334,10.334 0 0 1 294.0204256152344,251.0665740478516 zm8.02924,-83.48172 l-0.25639,-1.04919 l1.0789,-0.09888000000000002 c0.4218200000000001,-0.045330000000000016 10.39871,-0.9410000000000001 18.16489,4.60653 c7.7662700000000005,5.5476 10.14774,15.28086 10.25123,15.688 l0.24673000000000003,1.05158 l-1.07643,0.10859000000000002 a28.42311,28.42311 0 0 1 -4.589,-0.03035000000000001 a27.13718,27.13718 0 0 1 -13.57847,-4.58588 C304.52498561523436,177.7276640478516 302.14343561523435,167.99436404785155 302.0496656152344,167.58485404785154 z" fill="#ff8600" id="svg_38" class="" fill-opacity="1"/><path d="M481.6032556152344,271.06156404785156 l-12.18974,-0.96157 a3.29206,3.29206 0 0 0 -0.51776,6.56372 l12.18973,0.96157 a3.29206,3.29206 0 0 0 0.5177700000000001,-6.56372 z" fill="#ff8600" id="svg_39" class="" fill-opacity="1"/><path d="M504.10749561523437,272.8367740478516 l-12.18979,-0.96157 a3.29206,3.29206 0 0 0 -0.5177700000000001,6.56371 l12.1898,0.96157 a3.29206,3.29206 0 0 0 0.51776,-6.56371 z" fill="#ff8600" id="svg_40" class="" fill-opacity="1"/><path d="M482.2689556152344,262.62247404785154 l-12.18973,-0.96156 a3.29206,3.29206 0 0 0 -0.5177700000000001,6.56371 l12.18973,0.96157 a3.29206,3.29206 0 0 0 0.5177700000000001,-6.56372 z" fill="#ff8600" id="svg_41" class="" fill-opacity="1"/><path d="M504.77320561523436,264.39768404785156 l-12.1898,-0.96157 a3.29206,3.29206 0 0 0 -0.51776,6.56372 l12.18979,0.96157 a3.29206,3.29206 0 0 0 0.5177700000000001,-6.56372 z" fill="#ff8600" id="svg_42" class="" fill-opacity="1"/><path d="M482.9346556152344,254.18339404785155 l-12.18973,-0.96157 a3.29206,3.29206 0 0 0 -0.5177700000000001,6.56372 l12.18973,0.96156 a3.29206,3.29206 0 0 0 0.5177700000000001,-6.56371 z" fill="#ff8600" id="svg_43" class="" fill-opacity="1"/><path d="M505.4389056152344,255.95860404785157 l-12.18979,-0.96157 a3.29206,3.29206 0 0 0 -0.5177700000000001,6.56371 l12.18979,0.96157 a3.29206,3.29206 0 0 0 0.5177700000000001,-6.56371 z" fill="#ff8600" id="svg_44" class="" fill-opacity="1"/><rect x="551.629150390625" y="987.876220703125" width="2.000699996948242" height="247.61314392089844" transform="rotate(-85.50836944580078 -4.393829822540157,740.5674438476564) " fill="#fff" id="svg_45"/><polygon points="536.278 193.917 536.123 195.907 527.532 195.233 435.999 188.043 436.164 186.051 527.687 193.243 536.278 193.917" fill="#3f3d56" id="svg_46"/><path d="M234.5047556152344,172.77164404785157 s-13.36292,56.4212 2.9695400000000003,56.4212 S292.4107556152344,165.34777404785154 292.4107556152344,165.34777404785154 L279.0477556152344,149.01532404785155 l-23.985,33.29993 l-1.2561,-16.96747 z" fill="#a0616a" id="svg_47"/><circle cx="288.84991455078125" cy="154.80056762695312" r="13" fill="#a0616a" id="svg_48"/><path d="M267.5923156152344,125.25904404785155 l-8.90863,-8.9086 s-17.81723,10.39337 -19.302,20.78677 s-8.9086,43.05829 -8.9086,43.05829 l27.46823,2.22714 l8.9086,-13.36291 z" fill="#e6e6e6" id="svg_49"/></g></svg>