<svg xmlns="http://www.w3.org/2000/svg" data-name="Layer 1" width="728.25201" height="598.94268"><rect id="backgroundrect" width="100%" height="100%" x="0" y="0" fill="none" stroke="none"/><g class="currentLayer" style=""><title>Layer 1</title><path d="M592.6751770800781,60.19652399414062 c4.65329,-18.97853 0.22879000000000005,-41.112 -14.80423,-53.59546 a90.03142,90.03142 0 0 1 -22.02014,57.75737 c-5.39319,6.17053 -12.03421,12.47209 -12.29579,20.66319 c-0.16286000000000003,5.0967 2.32533,9.992 5.75361,13.7667 c3.42853,3.77476 7.75356,6.59957 12.02738,9.38134 l0.6276500000000002,1.10748 C575.7210070800782,95.40012399414061 588.0218970800781,79.17506399414063 592.6751770800781,60.19652399414062 z" fill="#f0f0f0" id="svg_1"/><path d="M577.5688670800781,6.878343994140636 a76.95263,76.95263 0 0 1 2.45029,47.28239 a33.13822,33.13822 0 0 1 -4.0479,9.56134 a19.00625,19.00625 0 0 1 -7.557,6.55375 c-2.82466,1.42853 -5.87941,2.56265 -8.30763,4.65294 a11.63766,11.63766 0 0 0 -3.9151,8.675 c-0.11729000000000003,4.08665 1.24081,7.9717400000000005 2.701,11.72487 c1.62121,4.16713 3.37116,8.4698 2.99642,13.03223 c-0.04540000000000001,0.5528000000000001 0.8150000000000001,0.5909300000000001 0.8603500000000001,0.03900000000000001 c0.6520000000000001,-7.93785 -4.7391000000000005,-14.64278 -5.59417,-22.34206 c-0.3990000000000001,-3.59262 0.28227,-7.32726 2.93854,-9.94662 c2.32278,-2.2905100000000003 5.47186,-3.46272 8.34439,-4.88442 a20.28118,20.28118 0 0 0 7.62786,-6.13285 a30.63566,30.63566 0 0 0 4.4005600000000005,-9.37043 A74.65778,74.65778 0 0 0 583.4522870800781,32.58134399414064 a78.31733,78.31733 0 0 0 -5.12087,-26.10361 c-0.19722000000000003,-0.5164599999999999 -0.95848,-0.11249000000000002 -0.7625500000000001,0.40059 z" fill="#fff" id="svg_2"/><path d="M581.6588670800782,49.20807399414062 a11.54535,11.54535 0 0 0 12.51956,-8.17089 c0.15574000000000005,-0.5317900000000001 -0.6633100000000001,-0.79878 -0.81926,-0.26628999999999997 a10.69072,10.69072 0 0 1 -11.661340000000001,7.57683 c-0.54944,-0.07225000000000001 -0.58526,0.7885099999999999 -0.03900000000000001,0.8603500000000001 z" fill="#fff" id="svg_3"/><path d="M569.9418970800781,69.74010399414061 a22.25274,22.25274 0 0 1 -4.72081,-15.51481 c0.04345000000000001,-0.5529400000000001 -0.8170000000000001,-0.5912400000000001 -0.8603400000000001,-0.03900000000000001 A23.14617,23.14617 0 0 0 569.3060070800781,70.32091399414062 c0.3453500000000001,0.4348000000000001 0.9793799999999999,-0.14837 0.6359100000000001,-0.58081 z" fill="#fff" id="svg_4"/><path d="M582.2091570800782,24.12954399414062 a6.5352,6.5352 0 0 1 -5.67506,-2.49961 c-0.3396600000000001,-0.43900000000000006 -0.9733599999999999,0.14471000000000003 -0.6359100000000001,0.58081 a7.32323,7.32323 0 0 0 6.272,2.77915 a0.4450800000000001,0.4450800000000001 0 0 0 0.44966000000000006,-0.41069 a0.43279,0.43279 0 0 0 -0.41069,-0.44966000000000006 z" fill="#fff" id="svg_5"/><path d="M512.8610070800781,18.88724399414062 c0.2043,0.28013 0.40859,0.56025 0.6106300000000001,0.8473 a86.06488,86.06488 0 0 1 7.22271,11.94751 c0.16595000000000004,0.32000000000000006 0.3293000000000001,0.6467300000000001 0.4857,0.9708 a90.73174,90.73174 0 0 1 8.8055,32.22333 a88.11162,88.11162 0 0 1 0.062250000000000014,13.3876 c-0.44061000000000006,6.15617 -1.40816,12.796 0.16439000000000004,18.56826 a15.11411,15.11411 0 0 0 0.5826000000000001,1.7778200000000002 l29.76911,11.34709 c0.08060000000000002,-0.008170000000000002 0.15900000000000003,-0.009450000000000002 0.23987,-0.017490000000000006 l1.16788,0.5074099999999999 c0.03250000000000001,-0.22876000000000005 0.06129000000000001,-0.46671 0.09378000000000003,-0.6954600000000001 c0.019410000000000004,-0.13262 0.03218000000000001,-0.26776 0.05158000000000001,-0.40037000000000006 c0.010840000000000002,-0.08922000000000004 0.021360000000000007,-0.17859000000000003 0.036230000000000005,-0.25848000000000004 c0.003720000000000001,-0.029680000000000005 0.007110000000000002,-0.05949000000000001 0.008250000000000002,-0.08241000000000001 c0.014880000000000003,-0.07988 0.020210000000000002,-0.15567 0.03250000000000001,-0.22875000000000004 q0.24690000000000004,-1.99446 0.46661,-3.99932 c0.0026000000000000007,-0.006800000000000002 0.0026000000000000007,-0.006800000000000002 -0.0014500000000000003,-0.016130000000000002 a129.55615,129.55615 0 0 0 0.007110000000000002,-30.63 c-0.04018000000000001,-0.30313 -0.07744000000000001,-0.6129300000000001 -0.13122,-0.9212400000000001 a84.07923,84.07923 0 0 0 -2.97684,-13.394 a74.32939,74.32939 0 0 0 -2.60862,-7.054 A61.81,61.81 0 0 0 546.6231570800782,36.43134399414063 c-8.5283,-9.70708 -20.06617,-16.57859 -32.78938,-17.48447 C513.5082770800781,18.923973994140624 513.1890970800781,18.903343994140613 512.8610070800781,18.88724399414062 z" fill="#f0f0f0" id="svg_6"/><path d="M512.7839170800781,19.290583994140633 a76.95264,76.95264 0 0 1 30.42368,36.2771 a33.13823,33.13823 0 0 1 2.5245699999999998,10.07131 a19.00634,19.00634 0 0 1 -2.088,9.78262 c-1.39526,2.84124 -3.15149,5.58595 -3.8317900000000003,8.71688 a11.63765,11.63765 0 0 0 2.09695,9.28364 c2.3668,3.33359 5.79026,5.61793 9.21574,7.73549 c3.80335,2.35115 7.7910900000000005,4.7330000000000005 10.23878,8.60145 c0.29658000000000007,0.46872 1.00653,-0.018860000000000002 0.7104,-0.4868700000000001 c-4.25856,-6.73047 -12.59986,-8.83818 -17.91809,-14.47081 c-2.48159,-2.6282900000000002 -4.18614,-6.02036 -3.6423,-9.711 c0.47557000000000005,-3.2273300000000003 2.28418,-6.05924 3.72178,-8.92384 a20.28137,20.28137 0 0 0 2.398,-9.48923 a30.63556,30.63556 0 0 0 -2.12805,-10.13121 a74.6579,74.6579 0 0 0 -11.54911,-20.27531 a78.31745,78.31745 0 0 0 -19.8049,-17.75916 c-0.46841000000000005,-0.29362000000000005 -0.8330000000000001,0.48726 -0.36767000000000005,0.779 z" fill="#fff" id="svg_7"/><path d="M541.5350070800781,50.62606399414062 a11.54534,11.54534 0 0 0 5.07673,-14.06164 c-0.19582000000000002,-0.5183599999999999 -1.01054,-0.23842000000000002 -0.81446,0.28064 a10.69071,10.69071 0 0 1 -4.74915,13.0706 c-0.4822,0.27312000000000003 0.007430000000000002,0.982 0.4868800000000001,0.7104 z" fill="#fff" id="svg_8"/><path d="M544.5413470800781,74.07417399414064 a22.25275,22.25275 0 0 1 -13.11029,-9.54546 c-0.29822000000000004,-0.46765 -1.00826,0.019790000000000002 -0.7104,0.4868800000000001 a23.14622,23.14622 0 0 0 13.66264,9.90518 c0.53752,0.13924000000000003 0.6926500000000002,-0.7081200000000001 0.15805000000000002,-0.8466000000000001 z" fill="#fff" id="svg_9"/><path d="M526.8753570800782,30.270953994140626 a6.5352,6.5352 0 0 1 -6.03615,1.421 c-0.53549,-0.14600000000000002 -0.6900600000000001,0.70157 -0.15806000000000003,0.8466000000000001 a7.32324,7.32324 0 0 0 6.68109,-1.55718 a0.4450800000000001,0.4450800000000001 0 0 0 0.11176000000000003,-0.5986400000000002 a0.43279,0.43279 0 0 0 -0.5986400000000002,-0.11176000000000003 z" fill="#fff" id="svg_10"/><path d="M473.50000708007815,447.5866439941407 c-99.80371,0 -181,-81.19629 -181,-181 s81.19629,-181 181,-181 a182.729,182.729 0 0 1 31.477,2.7275400000000003 a0.99988,0.99988 0 1 1 -0.3452200000000001,1.9697300000000002 A180.7818,180.7818 0 0 0 473.50000708007815,87.58664399414062 c-98.70093,0 -179,80.29883 -179,179 s80.29907,179 179,179 s179,-80.29883 179,-179 a178.54758,178.54758 0 0 0 -46.69507,-120.56884 a1.0001,1.0001 0 0 1 1.478,-1.34766 a180.544,180.544 0 0 1 47.217,121.9165 C654.5000070800781,366.3903439941406 573.3037170800782,447.5866439941407 473.50000708007815,447.5866439941407 z" fill="#e4e4e4" id="svg_11"/><circle cx="553.3074340820312" cy="111.85221862792969" r="35.81101989746094" fill="#ff8600" id="svg_12" class="selected" fill-opacity="1"/><path d="M548.4220770800781,130.4901939941406 a3.9823399999999998,3.9823399999999998 0 0 1 -3.18647,-1.5937200000000002 l-9.76979,-13.02661 a3.98339,3.98339 0 1 1 6.3735800000000005,-4.77986 l6.39173,8.52166 l16.41634,-24.62418 a3.9835599999999998,3.9835599999999998 0 0 1 6.6290000000000004,4.41936 l-19.53959,29.30938 a3.9851900000000002,3.9851900000000002 0 0 1 -3.204,1.7726700000000002 C548.4960070800781,130.4895439941406 548.4590070800781,130.4901939941406 548.4220770800781,130.4901939941406 z" fill="#fff" id="svg_13"/><path d="M468.8433370800781,238.49772399414064 L413.61969708007814,84.86687399414063 l1.40039,-0.50342 l-10.15625,-28.25684 l-1.40039,0.50391 l-16.95605,-47.16944 a14.25546,14.25546 0 0 0 -18.23731,-8.59326 l-99.83252,35.88526 a14.25569,14.25569 0 0 0 -8.59375,18.2373 l11.82227,32.88934 l-2.21271,0.8521200000000001 l7.54676,19.5971 l1.77136,-0.6821900000000002 l1.5670000000000002,4.35913 l-1.8850700000000002,0.7260000000000001 l7.54676,19.5971 l1.4437200000000001,-0.556 l54.7359,152.27405 a14.2297,14.2297 0 0 0 18.23779,8.59375 l99.832,-35.88525 A14.27289,14.27289 0 0 0 468.8433370800781,238.49772399414064 z" fill="#3f3d56" id="svg_14"/><path d="M355.16706708007814,287.55734399414064 a6.84506,6.84506 0 0 1 -6.42432,-4.52441 L265.5381570800781,51.558793994140615 a6.83147,6.83147 0 0 1 4.11768,-8.73877 l21.24121,-7.63525 l-0.031740000000000004,0.74316 a7.87374,7.87374 0 0 0 10.52978,7.74219 L348.53571708007814,26.725343994140616 a7.97439,7.97439 0 0 0 4.48779,-5.63623 a7.8083,7.8083 0 0 0 -1.86084,-6.835 l-0.49756000000000006,-0.55323 l21.94092,-7.8872 a6.8404,6.8404 0 0 1 8.73926,4.11816 L460.73000708007817,230.77754399414061 a18.147,18.147 0 0 1 -10.92675,23.188 L357.4820070800781,287.1510839941406 A6.84154,6.84154 0 0 1 355.16706708007814,287.55734399414064 z" fill="#fff" id="svg_15"/><circle cx="347.0334167480469" cy="96.37716674804688" r="27" fill="#ff8600" id="svg_16" class="" fill-opacity="1"/><path d="M413.93907708007816,135.6415839941406 l-93.50226,33.60994 a2.36173,2.36173 0 1 1 -1.5977900000000003,-4.445 l93.50227,-33.60994 a2.36173,2.36173 0 0 1 1.5977800000000002,4.445 z" fill="#e6e6e6" id="svg_17"/><path d="M386.1720070800782,156.9517839941406 l-30.75552,11.05525 a2.36185,2.36185 0 1 1 -1.5978700000000001,-4.4452300000000005 l30.75552,-11.05526 a2.36185,2.36185 0 0 1 1.5978700000000001,4.44524 z" fill="#e6e6e6" id="svg_18"/><path d="M393.4872370800781,177.30261399414064 l-30.75552,11.05525 a2.36184,2.36184 0 1 1 -1.59786,-4.4452300000000005 L391.88937708007813,172.85734399414065 a2.36184,2.36184 0 0 1 1.59786,4.4452300000000005 z" fill="#e6e6e6" id="svg_19"/><path d="M397.2340070800781,187.72607399414062 L366.47848708007814,198.78134399414063 a2.36173,2.36173 0 1 1 -1.5977800000000002,-4.445 l30.75552,-11.05525 a2.36173,2.36173 0 1 1 1.5977900000000003,4.445 z" fill="#e6e6e6" id="svg_20"/><path d="M407.0270070800781,160.78426399414064 l-65.25284,23.45552 a2.36173,2.36173 0 1 1 -1.5977900000000003,-4.445 l65.25284,-23.45552 a2.36173,2.36173 0 1 1 1.5977900000000003,4.445 z" fill="#e6e6e6" id="svg_21"/><path d="M393.8835470800781,213.02947399414063 l-11.16718,4.01411 a4.01609,4.01609 0 0 1 -2.717,-7.55869 l11.16718,-4.01411 a4.01609,4.01609 0 0 1 2.717,7.55869 z" fill="#6c63ff" id="svg_22"/><circle cx="305.8824462890625" cy="34.380348205566406" r="1.5529899597167969" fill="#fff" id="svg_23"/><path d="M127.2831670800781,121.72379399414064 c17.40561,-20.488410000000002 45.647,-33.4005 71.68354,-26.70621 a123.86328,123.86328 0 0 0 -46.63455,71.1133 c-2.53077,10.98713 -4.20157,23.471 -13.1221,30.36645 c-5.55047,4.29064 -13.01382,5.46354 -19.98575,4.6849300000000005 c-6.97225,-0.7788200000000001 -13.60828,-3.3229100000000003 -20.155,-5.84463 l-1.7406400000000002,0.19317 C101.7071570800781,169.00615399414062 109.87755708007813,142.21219399414065 127.2831670800781,121.72379399414064 z" fill="#f0f0f0" id="svg_24"/><path d="M198.90116708007815,95.57786399414061 a105.86974000000001,105.86974000000001 0 0 0 -54.68571,35.38859 a45.59124,45.59124 0 0 0 -7.39544,12.22116 a26.14855,26.14855 0 0 0 -1.2134800000000001,13.70827 c0.6847900000000002,4.30063 1.88328,8.62041 1.51072,13.01262 a16.01079,16.01079 0 0 1 -6.51439,11.3585 c-4.46122,3.42552 -9.88723,5.04375 -15.24841,6.4418500000000005 c-5.95256,1.55232 -12.16,3.07039 -16.94407,7.1664900000000005 c-0.5796500000000001,0.4963000000000001 -1.3158500000000002,-0.43215000000000003 -0.7370700000000001,-0.9277000000000001 c8.32345,-7.12651 20.14449,-6.52223 29.417,-11.77633 c4.32673,-2.45166 7.94083,-6.22209 8.71933,-11.29507 c0.6807800000000002,-4.43609 -0.55131,-8.89174 -1.28231,-13.24023 a27.90251,27.90251 0 0 1 0.6871200000000002,-13.44795 a42.14811,42.14811 0 0 1 6.89829,-12.46039 a102.71249,102.71249 0 0 1 23.39145,-21.98624 A107.7471,107.7471 0 0 1 198.73300708007815,94.40480399414062 c0.7347500000000001,-0.19651000000000005 0.8981600000000001,0.97782 0.16821000000000005,1.17306 z" fill="#fff" id="svg_25"/><path d="M148.41466708007812,125.14558399414062 a15.88383,15.88383 0 0 1 -0.9846900000000001,-20.54432 c0.46728000000000003,-0.60236 1.42526,0.09546000000000003 0.95737,0.6986200000000002 a14.70807,14.70807 0 0 0 0.9550000000000001,19.10863 c0.52352,0.55427 -0.40717000000000003,1.28817 -0.9277000000000001,0.7370700000000001 z" fill="#fff" id="svg_26"/><path d="M134.9721270800781,154.7610239941406 A30.61481,30.61481 0 0 0 156.0740070800781,147.5153439941406 c0.5813900000000001,-0.49422000000000005 1.31776,0.43407000000000007 0.7370700000000001,0.9277000000000001 a31.844,31.844 0 0 1 -21.97374,7.49514 c-0.7631400000000002,-0.03445000000000001 -0.6242000000000001,-1.21143 0.1348,-1.17717 z" fill="#fff" id="svg_27"/><path d="M175.92844708007812,104.31323399414063 a8.991,8.991 0 0 0 7.3619200000000005,4.31129 c0.7632000000000001,0.024760000000000004 0.6234400000000001,1.20177 -0.13479000000000002,1.17717 a10.07516,10.07516 0 0 1 -8.15482,-4.75139 a0.6123200000000001,0.6123200000000001 0 0 1 0.09531000000000002,-0.83238 a0.5954200000000001,0.5954200000000001 0 0 1 0.83238,0.09531000000000002 z" fill="#fff" id="svg_28"/><path d="M237.68264708007814,177.39582399414064 c-0.47700000000000004,-0.0019100000000000007 -0.9540000000000001,-0.0038100000000000013 -1.4368800000000002,0.0023800000000000006 a118.4065,118.4065 0 0 0 -19.14216,1.5805099999999999 c-0.4904800000000001,0.07300000000000001 -0.9864499999999999,0.15431000000000003 -1.4738200000000001,0.24122000000000002 a124.82719,124.82719 0 0 0 -43.02164,16.16286 a121.222,121.222 0 0 0 -14.97463,10.724 c-6.50765,5.45443 -13.12962,11.88622 -20.83237,14.7869 a20.793590000000002,20.793590000000002 0 0 1 -2.4516,0.7838400000000001 L97.69930708007814,197.63934399414063 c-0.055880000000000006,-0.09643000000000003 -0.11762000000000003,-0.18481000000000003 -0.17391000000000004,-0.28150000000000003 l-1.50721,-0.8928600000000001 c0.22881000000000004,-0.22066000000000002 0.47086000000000006,-0.44460000000000005 0.6996700000000002,-0.6652500000000001 c0.1322,-0.12855 0.27256,-0.25173999999999996 0.40476,-0.38029 c0.09071000000000003,-0.08400000000000002 0.18187,-0.16779000000000005 0.25893,-0.24878000000000003 c0.030090000000000006,-0.028070000000000005 0.06059000000000001,-0.055880000000000006 0.08523000000000003,-0.07563000000000002 c0.07706000000000002,-0.08100000000000002 0.15724000000000005,-0.14800000000000002 0.22881000000000004,-0.22066000000000002 q2.02436,-1.8832200000000001 4.08223,-3.74452 c0.005490000000000001,-0.008370000000000002 0.005490000000000001,-0.008370000000000002 0.01914,-0.011390000000000003 c10.47745,-9.42818 21.83406,-18.06448 34.14045,-24.70252 c0.3703200000000001,-0.19959000000000005 0.7457200000000002,-0.40782000000000007 1.13279,-0.59643 a115.67412,115.67412 0 0 1 17.33155,-7.48 a102.26438,102.26438 0 0 1 9.96684,-2.779 a85.0372,85.0372 0 0 1 26.53608,-1.65815 c17.69713,1.6812500000000001 34.65957,9.00364 45.92719,22.45709 C237.11985708007813,176.70385399414062 237.40013708007814,177.0430839941406 237.68264708007814,177.39582399414064 z" fill="#f0f0f0" id="svg_29"/><path d="M237.29515708007813,177.80694399414062 a105.8697,105.8697 0 0 0 -64.96986,-4.66876 a45.59087,45.59087 0 0 0 -13.26282,5.30534 a26.14858,26.14858 0 0 0 -9.22223,10.21468 c-2.04251,3.84611 -3.68638,8.01679 -6.62826,11.29941 a16.01081,16.01081 0 0 1 -12.04,5.147 c-5.62443,0.04912000000000001 -10.93109,-1.92564 -16.05344,-4.03714 c-5.687390000000001,-2.34441 -11.55768,-4.86963 -17.84361,-4.47946 c-0.7616300000000001,0.047270000000000006 -0.79045,-1.13728 -0.030000000000000006,-1.18448 c10.93645,-0.6788300000000002 20.01107,6.92074 30.578,8.30832 c4.93071,0.6474700000000001 10.08643,-0.18706000000000003 13.76231,-3.7688300000000003 c3.21439,-3.13211 4.91325,-7.4315 6.94768,-11.34364 a27.90247,27.90247 0 0 1 8.64522,-10.32374 a42.14793,42.14793 0 0 1 13.00991,-5.79567 a102.71256,102.71256 0 0 1 31.914,-3.47152 a107.747,107.747 0 0 1 35.765,7.76058 c0.7050000000000001,0.28546000000000005 0.12841000000000002,1.3214800000000002 -0.5720000000000001,1.03789 z" fill="#fff" id="svg_30"/><path d="M179.18269708007813,171.01875399414064 a15.88383,15.88383 0 0 1 11.58289,-16.99634 c0.7357500000000001,-0.19962000000000002 1.08051,0.93432 0.3437800000000001,1.13421 a14.70808,14.70808 0 0 0 -10.74219,15.83216 c0.08430000000000001,0.7577500000000001 -1.10067,0.78339 -1.18448,0.030000000000000006 z" fill="#fff" id="svg_31"/><path d="M150.61900708007812,186.57168399414064 a30.61477,30.61477 0 0 0 21.21105,6.91953 c0.7617700000000002,-0.04458000000000001 0.7908200000000001,1.1400000000000001 0.030000000000000006,1.18448 a31.844,31.844 0 0 1 -22.05739,-7.24526 c-0.58858,-0.48700000000000004 0.231,-1.34307 0.81637,-0.8587500000000001 z" fill="#fff" id="svg_32"/><path d="M213.69342708007815,170.9504839941406 a8.991,8.991 0 0 0 3.28239,7.87471 c0.59447,0.47927000000000003 -0.22577000000000003,1.3349000000000002 -0.81636,0.8587500000000001 a10.07517,10.07517 0 0 1 -3.65051,-8.70349 a0.61233,0.61233 0 0 1 0.57726,-0.6072200000000001 a0.59541,0.59541 0 0 1 0.6072200000000001,0.57725 z" fill="#fff" id="svg_33"/><path d="M649.6496070800781,515.5138839941407 c18.97853,4.65329 41.112,0.22879000000000005 53.59546,-14.80423 a90.03142,90.03142 0 0 1 -57.75737,-22.02014 c-6.17052,-5.39319 -12.47208,-12.03421 -20.66319,-12.29579 c-5.0967,-0.16286000000000003 -9.992,2.32533 -13.7667,5.75361 c-3.77476,3.42853 -6.59957,7.75355 -9.38134,12.02738 l-1.10748,0.6276500000000002 C614.4460070800782,498.5597539941406 630.6710670800782,510.86060399414066 649.6496070800781,515.5138839941407 z" fill="#f0f0f0" id="svg_34"/><path d="M702.9678170800781,500.40757399414065 a76.95263,76.95263 0 0 1 -47.28239,2.45029 a33.13822,33.13822 0 0 1 -9.56134,-4.0479 a19.00631,19.00631 0 0 1 -6.55375,-7.557 c-1.42853,-2.82466 -2.56265,-5.87941 -4.65294,-8.30763 a11.63766,11.63766 0 0 0 -8.675,-3.9151 c-4.08665,-0.11729000000000003 -7.97173,1.24081 -11.72487,2.701 c-4.16713,1.62121 -8.4698,3.37116 -13.03223,2.99642 c-0.5528000000000001,-0.04540000000000001 -0.5909300000000001,0.8150000000000001 -0.03900000000000001,0.8603500000000001 c7.93785,0.6520000000000001 14.64278,-4.7391000000000005 22.34206,-5.59417 c3.59263,-0.3990000000000001 7.32726,0.28227 9.94662,2.93854 c2.2905100000000003,2.32278 3.46272,5.47186 4.88442,8.34439 a20.28118,20.28118 0 0 0 6.13285,7.62786 a30.63577,30.63577 0 0 0 9.37043,4.4005600000000005 a74.65747,74.65747 0 0 0 23.14206,2.98581 a78.31707,78.31707 0 0 0 26.10361,-5.12086 c0.5164599999999999,-0.19722000000000003 0.11249000000000002,-0.95848 -0.40059,-0.7625500000000001 z" fill="#fff" id="svg_35"/><path d="M660.6380570800782,504.4975739941407 a11.54535,11.54535 0 0 0 8.17089,12.51956 c0.5317900000000001,0.15574000000000005 0.79878,-0.6633100000000001 0.26628999999999997,-0.81926 a10.69073,10.69073 0 0 1 -7.57683,-11.661340000000001 c0.07225000000000001,-0.54944 -0.7885099999999999,-0.5852700000000001 -0.8603500000000001,-0.03900000000000001 z" fill="#fff" id="svg_36"/><path d="M640.1060070800781,492.7806039941406 a22.25275,22.25275 0 0 1 15.51481,-4.72081 c0.5529400000000001,0.04345000000000001 0.5912400000000001,-0.8170000000000001 0.03900000000000001,-0.8603400000000001 a23.14617,23.14617 0 0 0 -16.13458,4.94524 c-0.4348000000000001,0.3453500000000001 0.14837,0.9793799999999999 0.58081,0.6359100000000001 z" fill="#fff" id="svg_37"/><path d="M685.7165870800782,505.0478639941406 a6.5352,6.5352 0 0 1 2.49961,-5.67506 c0.43900000000000006,-0.3396600000000001 -0.14470000000000002,-0.9733599999999999 -0.58081,-0.6359100000000001 a7.32326,7.32326 0 0 0 -2.77915,6.272 a0.4450800000000001,0.4450800000000001 0 0 0 0.41069,0.44966000000000006 a0.43279,0.43279 0 0 0 0.44966000000000006,-0.41069 z" fill="#fff" id="svg_38"/><path d="M690.9588870800782,435.69971399414067 c-0.28012000000000004,0.2043 -0.56025,0.40859 -0.8473,0.6106300000000001 a86.06488,86.06488 0 0 1 -11.94751,7.22271 c-0.32000000000000006,0.16600000000000004 -0.6467300000000001,0.3293000000000001 -0.9708,0.4857 a90.73174,90.73174 0 0 1 -32.22333,8.8055 a88.1115,88.1115 0 0 1 -13.38759,0.062250000000000014 c-6.15618,-0.44061000000000006 -12.796,-1.40816 -18.56827,0.16439000000000004 a15.11411,15.11411 0 0 0 -1.7778200000000002,0.5826000000000001 l-11.34708,29.76911 c0.00816,0.08060000000000002 0.009440000000000002,0.15900000000000003 0.017480000000000006,0.23987 l-0.5074,1.16788 c0.22875000000000004,0.03250000000000001 0.4667,0.06129000000000001 0.6954500000000001,0.09378000000000003 c0.13262,0.019410000000000004 0.26776,0.03218000000000001 0.40038000000000007,0.05158000000000001 c0.08921000000000003,0.010840000000000002 0.17859000000000003,0.021360000000000007 0.25847000000000003,0.036230000000000005 c0.029680000000000005,0.003720000000000001 0.05949000000000001,0.007110000000000002 0.08241000000000001,0.008250000000000002 c0.07989000000000002,0.014880000000000003 0.15567,0.020210000000000002 0.22875000000000004,0.03250000000000001 q1.99446,0.24690000000000004 3.99932,0.46661 c0.006800000000000002,0.0026000000000000007 0.006800000000000002,0.0026000000000000007 0.016130000000000002,-0.0014500000000000003 a129.55615,129.55615 0 0 0 30.63,0.007110000000000002 c0.30313,-0.04018000000000001 0.6129300000000001,-0.07744000000000001 0.9212400000000001,-0.13122 a84.07923,84.07923 0 0 0 13.394,-2.97684 a74.32939,74.32939 0 0 0 7.05395,-2.60862 a61.809870000000004,61.809870000000004 0 0 0 16.33543,-10.32642 c9.70708,-8.5283 16.57859,-20.06617 17.48447,-32.78938 C690.9221670800781,436.3469839941406 690.9427470800781,436.02780399414064 690.9588870800782,435.69971399414067 z" fill="#f0f0f0" id="svg_39"/><path d="M690.5555470800781,435.62262399414067 a76.95264,76.95264 0 0 1 -36.2771,30.42368 a33.13823,33.13823 0 0 1 -10.07131,2.5245699999999998 a19.00634,19.00634 0 0 1 -9.78262,-2.088 c-2.84124,-1.39526 -5.58594,-3.15149 -8.71688,-3.8317900000000003 a11.63765,11.63765 0 0 0 -9.28364,2.097 c-3.33358,2.3668 -5.61793,5.79026 -7.73549,9.21574 c-2.35114,3.80335 -4.7330000000000005,7.7910900000000005 -8.60145,10.23878 c-0.46872,0.29658000000000007 0.018860000000000002,1.00653 0.4868700000000001,0.7104 c6.73047,-4.25856 8.83818,-12.59986 14.47081,-17.91809 c2.6282900000000002,-2.48159 6.02036,-4.18614 9.711,-3.6423 c3.2273300000000003,0.47557000000000005 6.05924,2.28418 8.92384,3.72178 a20.28138,20.28138 0 0 0 9.48924,2.398 a30.63556,30.63556 0 0 0 10.1312,-2.128 a74.6579,74.6579 0 0 0 20.27531,-11.54911 A78.31745,78.31745 0 0 0 691.3345070800781,435.99034399414063 c0.29362000000000005,-0.46841000000000005 -0.48726,-0.8330000000000001 -0.779,-0.36767000000000005 z" fill="#fff" id="svg_40"/><path d="M659.2200670800781,464.3736939941406 a11.54536,11.54536 0 0 0 14.06164,5.07673 c0.51837,-0.19582000000000002 0.23842000000000002,-1.01054 -0.28064,-0.81446 a10.69071,10.69071 0 0 1 -13.0706,-4.74915 c-0.27312000000000003,-0.4822 -0.98195,0.007430000000000002 -0.7104,0.4868800000000001 z" fill="#fff" id="svg_41"/><path d="M635.7720070800781,467.38005399414067 a22.25269,22.25269 0 0 1 9.54545,-13.11029 c0.46765,-0.29822000000000004 -0.019790000000000002,-1.00826 -0.4868800000000001,-0.7104 a23.14626,23.14626 0 0 0 -9.90518,13.66264 c-0.13924000000000003,0.53752 0.7081200000000001,0.6926500000000002 0.8466100000000001,0.15805000000000002 z" fill="#fff" id="svg_42"/><path d="M679.5751770800781,449.7140639941406 a6.5352,6.5352 0 0 1 -1.421,-6.03615 c0.14600000000000002,-0.53549 -0.70157,-0.6900600000000001 -0.8466000000000001,-0.15806000000000003 a7.32324,7.32324 0 0 0 1.55718,6.68109 a0.44509000000000004,0.44509000000000004 0 0 0 0.5986400000000002,0.11176000000000003 a0.43279,0.43279 0 0 0 0.11176000000000003,-0.5986400000000002 z" fill="#fff" id="svg_43"/><path d="M725.6965470800782,333.1013439941406 l-28.94,48.7 l1.1,0.5800000000000001 l-9.8,18.58 l-2.04,-1.08 l-6.44,10.83 l1.6,0.92 l-10.5,18.18 l-1.82,-1.05 l-94.43,158.92 a18.27388,18.27388 0 0 1 -25.02,6.37 L373.8565170800781,489.7413439941406 a18.27169,18.27169 0 0 1 -6.37,-25.02 l151.27,-254.58 a18.274,18.274 0 0 1 25.02,-6.37 l175.55,104.31 A18.28057,18.28057 0 0 1 725.6965470800782,333.1013439941406 z" fill="#3f3d56" id="svg_44"/><path d="M555.6630670800781,584.2243439941407 L379.49464708007815,479.5478239941406 a5.633900000000001,5.633900000000001 0 0 1 -1.9632800000000001,-7.7124500000000005 L529.8051870800781,215.56171399414063 a5.63389,5.63389 0 0 1 7.7124500000000005,-1.9632800000000001 L713.6860070800781,318.27496399414065 a5.63389,5.63389 0 0 1 1.9632900000000002,7.7124500000000005 L563.3755170800781,582.2610739941406 A5.633900000000001,5.633900000000001 0 0 1 555.6630670800781,584.2243439941407 z" fill="#fff" id="svg_45"/><circle cx="628.0281372070312" cy="260.3332214355469" r="1.5529899597167969" fill="#fff" id="svg_46"/><path d="M618.4170070800782,445.46485399414064 L471.3603570800781,358.08611399414065 a4.066,4.066 0 1 1 4.15392,-6.99095 l147.05661,87.37874 a4.066,4.066 0 1 1 -4.15392,6.99095 z" fill="#e6e6e6" id="svg_47"/><path d="M559.6983370800781,431.9253439941406 l-48.371,-28.74133 a4.06616,4.06616 0 1 1 4.15411,-6.99128 l48.371,28.74132 a4.06616,4.06616 0 0 1 -4.15411,6.99129 z" fill="#e6e6e6" id="svg_48"/><path d="M540.6802870800781,463.93234399414064 l-48.371,-28.74133 a4.06616,4.06616 0 0 1 4.15411,-6.99128 l48.371,28.74132 a4.06616,4.06616 0 1 1 -4.15411,6.99129 z" fill="#e6e6e6" id="svg_49"/><path d="M530.9394670800781,480.3259039941406 l-48.371,-28.74132 a4.066,4.066 0 1 1 4.15391,-6.991 l48.371,28.74133 a4.066,4.066 0 1 1 -4.15391,6.99095 z" fill="#e6e6e6" id="svg_50"/><path d="M577.4507570800781,463.8232639941406 l-102.627,-60.97939 a4.066,4.066 0 0 1 4.15391,-6.99095 l102.627,60.97939 a4.066,4.066 0 1 1 -4.15391,6.99095 z" fill="#e6e6e6" id="svg_51"/><path d="M557.8900970800781,541.7550139941407 l-17.5633,-10.43584 a6.9141200000000005,6.9141200000000005 0 0 1 7.06367,-11.888 l17.56329,10.43584 a6.91411,6.91411 0 0 1 -7.06366,11.888 z" fill="#ff8600" id="svg_52" class="" fill-opacity="1"/><circle cx="590.6586303710938" cy="336.314453125" r="36" fill="#ff8600" id="svg_53" class="" fill-opacity="1"/><path d="M0.4240070800781268,482.60551399414067 H487.60482708007817 V200.5574239941406 a7.98,7.98 0 0 0 -7.971,-7.9707799999999995 H8.39500708007813 a7.98,7.98 0 0 0 -7.971,7.9707799999999995 z" fill="#cacaca" id="svg_54"/><rect x="15.476149559020996" y="203.61074829101562" width="457.0765075683594" height="259.4905700683594" fill="#fff" id="svg_55"/><path d="M0.000007080078120225153,474.97344399414067 v34.805 a10.98729,10.98729 0 0 0 10.98725,10.98741 H190.80188708007813 v68.68868 h-2.38875 a1.42719,1.42719 0 0 0 -1.42728,1.42723 V595.6593439941406 a1.4272,1.4272 0 0 0 1.42728,1.42728 H300.0396970800781 A1.42721,1.42721 0 0 0 301.46700708007813,595.6593439941406 v-4.77756 a1.4272,1.4272 0 0 0 -1.42729,-1.42723 h-2.38875 V520.7658939941406 H477.4655770800781 a10.98729,10.98729 0 0 0 10.98726,-10.98741 v-34.805 z" fill="#3f3d56" id="svg_56"/><path d="M406.4133070800781,290.3943439941406 H189.95944708007812 a5.145,5.145 0 1 1 0,-10.29 H406.4133070800781 a5.145,5.145 0 1 1 0,10.29 z" fill="#e6e6e6" id="svg_57"/><path d="M333.78513708007813,313.61988399414065 H262.5873770800781 a5.14526,5.14526 0 1 1 0,-10.29052 h71.19776 a5.14526,5.14526 0 1 1 0,10.29052 z" fill="#e6e6e6" id="svg_58"/><path d="M333.78513708007813,360.7312139941406 H262.5873770800781 a5.14526,5.14526 0 0 1 0,-10.29053 h71.19776 a5.14526,5.14526 0 0 1 0,10.29053 z" fill="#e6e6e6" id="svg_59"/><path d="M333.78513708007813,384.8610939941407 H262.5873770800781 a5.145,5.145 0 1 1 0,-10.29 h71.19776 a5.145,5.145 0 1 1 0,10.29 z" fill="#e6e6e6" id="svg_60"/><path d="M373.71506708007814,336.84498399414065 H222.6574470800781 a5.145,5.145 0 1 1 0,-10.29 H373.71506708007814 a5.145,5.145 0 1 1 0,10.29 z" fill="#e6e6e6" id="svg_61"/><path d="M402.8095470800781,434.2658839941406 H376.9580070800781 a8.749,8.749 0 0 1 0,-17.49805 h25.85156 a8.749,8.749 0 0 1 0,17.49805 z" fill="#ff8600" id="svg_62" class="" fill-opacity="1"/><circle cx="121.8945083618164" cy="325.765869140625" r="45" fill="#ff8600" id="svg_63" class="" fill-opacity="1"/><path d="M648.4847070800781,598.9426839941407 h-647.294 a1.19069,1.19069 0 0 1 0,-2.38137 h647.294 a1.19069,1.19069 0 0 1 0,2.38137 z" fill="#cacaca" id="svg_64"/><circle cx="243.8024139404297" cy="196.40267944335938" r="1.6960200071334839" fill="#fff" id="svg_65"/></g></svg>