<svg xmlns="http://www.w3.org/2000/svg" data-name="Layer 1" width="984.05029" height="643.91531"><rect id="backgroundrect" width="100%" height="100%" x="0" y="0" fill="none" stroke="none"/><g class="currentLayer" style=""><title>Layer 1</title><path d="M50.471146484375,595.8719468603516 a24.1758,24.1758 0 0 0 23.75274,-4.27738 c8.31951,-7.13839 10.92793,-18.89885 13.0503,-29.788429999999998 q3.1388,-16.10461 6.27756,-32.20924 l-13.14275,9.25127 c-9.45147,6.6530000000000005 -19.11588,13.51905 -25.66,23.15556 s-9.40068,22.79117 -4.14266,33.21832 " fill="#e6e6e6" id="svg_1"/><path d="M51.594556484375005,634.8679068603516 c-1.3302200000000002,-9.9053 -2.6980000000000004,-19.93783 -1.7650000000000001,-29.94934 c0.8286800000000001,-8.89127 3.48213,-17.57557 8.88423,-24.69608 a40.51574,40.51574 0 0 1 10.3105,-9.55123 c1.031,-0.6652900000000002 1.98,1.00512 0.95346,1.66751 a38.87064,38.87064 0 0 0 -15.11191,18.64 c-3.29007,8.55479 -3.81842,17.88022 -3.25145,26.96786 c0.3428700000000001,5.49564 1.06951,10.95525 1.80176,16.40787 a1.00363,1.00363 0 0 1 -0.6597100000000001,1.18777 a0.9480000000000001,0.9480000000000001 0 0 1 -1.1619000000000002,-0.6744100000000001 z" fill="#f2f2f2" id="svg_2"/><path d="M64.40697648437501,617.3401968603515 a17.99382,17.99382 0 0 0 15.7768,8.32424 c7.98648,-0.38755000000000006 14.64467,-6.08585 20.63829,-11.49572 l17.72793,-16.00126 l-11.73295,-0.5740000000000001 c-8.43764,-0.41278000000000004 -17.093,-0.7978200000000001 -25.12954,1.8621500000000002 s-15.44832,9.06167 -16.91784,17.56555 " fill="#e6e6e6" id="svg_3"/><path d="M47.83526648437501,640.5620068603515 c6.40255,-11.58138 13.829,-24.45276 27.09868,-28.56665 a29.61321,29.61321 0 0 1 11.39812,-1.20314 c1.21015,0.10667000000000001 0.908,2.01365 -0.30000000000000004,1.90717 a27.63314,27.63314 0 0 0 -18.18964,4.91957 c-5.12878,3.56883 -9.12211,8.53044 -12.502,13.792 c-2.0703,3.22287 -3.92475,6.58244 -5.77954,9.93752 c-0.5927600000000001,1.07222 -2.32532,0.29825 -1.7256500000000001,-0.7865 z" fill="#f2f2f2" id="svg_4"/><path d="M387.974386484375,294.4052368603516 a13.08446,13.08446 0 0 1 -5.79308,17.33219 a12.53527,12.53527 0 0 1 -1.93261,0.7614700000000001 l-2.167,45.69972 l-18.77316,-14.03482 l4.936,-41.24554 a13.03588,13.03588 0 0 1 6.77562,-14.43535 A12.54494,12.54494 0 0 1 387.974386484375,294.4052368603516 z" fill="#9e616a" id="svg_5"/><polygon points="415.412 623.676 427.548 621.225 424.075 572.205 406.163 575.822 415.412 623.676" fill="#9e616a" id="svg_6"/><path d="M411.53367648437495,620.2506568603516 l23.90043,-4.82745 l0.0010000000000000002,-0.00020000000000000006 a15.1515,15.1515 0 0 1 11.65066,2.3855500000000003 a15.78846,15.78846 0 0 1 6.5894,10.10918 l0.09777000000000004,0.506 l-39.13192,7.90381 z" fill="#2f2e41" id="svg_7"/><polygon points="372.864 630.858 385.235 630.858 391.12 582.079 372.862 582.079 372.864 630.858" fill="#9e616a" id="svg_8"/><path d="M369.708806484375,626.7293668603515 l24.362470000000002,-0.0010000000000000002 h0.0010000000000000002 a15.256,15.256 0 0 1 10.97757,4.64845 a15.94707,15.94707 0 0 1 4.5481,11.223 v0.5157700000000001 l-39.88839,0.0015100000000000005 z" fill="#2f2e41" id="svg_9"/><path d="M205.090756484375,526.1902268603516 c-13.73162,-0.006820000000000002 -24.85787,-11.39207 -24.851210000000002,-25.42972 a25.90747,25.90747 0 0 1 1.95412,-9.86492 l3.66167,1.58385 a21.52957,21.52957 0 0 0 11.1374,27.97016 a20.46745,20.46745 0 0 0 15.84121,0.16000000000000003 l1.47554,3.775 A24.26055,24.26055 0 0 1 205.090756484375,526.1902268603516 z" fill="#3f3d56" id="svg_10"/><polygon points="243.362 525.682 212.546 525.682 212.546 517.553 237.397 510.439 243.362 525.682" fill="#3f3d56" id="svg_11"/><path d="M232.42708648437502,517.5525168603516 h81.512 a17.09023,17.09023 0 0 1 -16.89883,17.27543 H249.32590648437503 a17.09023,17.09023 0 0 1 -16.89882,-17.27543 z" fill="#3f3d56" id="svg_12"/><path d="M321.624656484375,527.8305668603516 H231.166246484375 a12.19738,12.19738 0 0 1 0,-24.38883 h90.45841 a12.19738,12.19738 0 0 1 0,24.38883 z" fill="#cacaca" id="svg_13"/><path d="M380.037666484375,339.20522686035156 l-0.17292000000000002,8.21249 l-0.7665400000000001,36.88905 A18.57432,18.57432 0 0 1 360.332676484375,402.70765686035156 a18.17394,18.17394 0 0 1 -12.05955,-4.95346 L296.856506484375,348.3026568603516 a19.40935,19.40935 0 0 1 1.3010000000000002,-29.4016 a18.48,18.48 0 0 1 25.19648,2.25711 l33.95739,39.05931 l3.2615600000000002,-24.54516 z" fill="#e6e6e6" id="svg_14"/><path d="M392.665636484375,610.7853368603515 l-24.30808,2.2591 l-13.259,-98.26966 c-43.70573,7.5166900000000005 -84.93814,9.92465 -120.60239,0.8316800000000001 a23.0526,23.0526 0 0 1 -16.48613,-27.84854 q0.20827,-0.8656000000000001 0.48155000000000003,-1.7126700000000001 c4.26833,-13.02287 11.78834,-26.97833 20.59119,-41.30172 L297.643146484375,466.2046568603515 l2.20982,9.03628 l62.462,-8.08278 a23.03209,23.03209 0 0 1 25.62329,20.3079 q0.12591000000000002,1.01708 0.16454000000000005,2.04245 z" fill="#2f2e41" id="svg_15"/><path d="M429.62161648437495,590.0911468603516 l-24.30807,2.259 l-44.07453,-90.14 c-43.70573,7.5166900000000005 -84.93814,9.92465 -120.60236,0.8316800000000001 a23.05259,23.05259 0 0 1 -16.48613,-27.84853 q0.20823000000000003,-0.86551 0.48155000000000003,-1.7126700000000001 c4.26833,-13.02287 11.78834,-26.97834 20.5912,-41.30173 l67.952,5.7178 l-7.1817400000000005,24.77966 l62.462,-8.08279 a23.03209,23.03209 0 0 1 25.62329,20.3079 q0.12591000000000002,1.01707 0.16454000000000005,2.04246 z" fill="#2f2e41" id="svg_16"/><ellipse cx="315.0873107910156" cy="270.38177490234375" rx="29.83264923095703" ry="30.49748992919922" fill="#9e616a" id="svg_17"/><path d="M349.153986484375,320.5641168603516 a2.3930800000000003,2.3930800000000003 0 0 0 0.8780000000000001,3.20385 c0.79805,0.09877000000000004 19.54431,12.18949 20.07924,10.80506 a2.3127,2.3127 0 0 0 1.39174,-1.1376 l30.1696,-56.47445 a2.39772,2.39772 0 0 0 0.10867000000000002,-2.02921 c0.83413,-1.4550800000000002 -20.79713,-7.036 -21.5352,-7.47253 a2.27325,2.27325 0 0 0 -2.67308,1.10993 z" fill="#3f3d56" id="svg_18"/><path d="M397.339816484375,275.77017686035157 s-18.10511,-5.09671 -17.8,-5.31369 c-0.49063,-0.019850000000000003 -1.47943,-0.7277300000000001 -1.79446,0.0014600000000000004 l-26.87181,49.52838 c-1.15544,1.08006 17.83863,9.89906 17.99911,10.42276 c1.50034,0.9444400000000001 28.02946,-53.43387 28.84742,-53.7132 a0.6520000000000001,0.6520000000000001 0 0 0 -0.25514,-0.87346 A0.6228500000000001,0.6228500000000001 0 0 0 397.339816484375,275.77017686035157 z" fill="#ff8600" id="svg_19" class="" fill-opacity="1"/><path d="M331.783696484375,317.7052168603516 a8.27123,8.27123 0 0 0 0.524,-2.1208 a8.088940000000001,8.088940000000001 0 0 0 -7.03636,-8.96869 l-13.86965,-1.55732 a7.99627,7.99627 0 0 0 -8.77328,7.19346 a8.23784,8.23784 0 0 0 1.2377500000000001,5.31641 a36.62842,36.62842 0 0 0 -31.015,25.66068 c-13.70325,25.4678 -23.567,54.92459 -28.20784,89.81692 l61.57359,29.2397 l23.4513,-50.16009 l4.71937,-7.40474 c0.91921,-0.9775499999999999 1.7979,-1.9534500000000001 2.63,-2.947 a65.24842,65.24842 0 0 0 11.52583,-18.55649 a48.727,48.727 0 0 0 3.3635800000000002,-15.23956 C352.846636484375,351.25593686035154 345.003386484375,334.49683686035155 331.783696484375,317.7052168603516 z" fill="#e4e4e4" id="svg_20"/><path d="M348.543506484375,383.21722686035156 a65.2565,65.2565 0 0 1 -11.526,18.55653 c-0.8320000000000001,0.9934799999999999 -1.7106000000000001,1.96935 -2.6301,2.947 l-4.71926,7.4047 c-17.39621,-13.03948 -31.490850000000002,-64.38133 -31.490850000000002,-64.38133 l19.62793,-3.81818 z" opacity="0.2" style="isolation:isolate" id="svg_21"/><path d="M360.426576484375,303.72837686035155 A13.11453,13.11453 0 0 0 364.855146484375,321.4760868603516 a12.58382,12.58382 0 0 0 1.8673600000000001,0.9159400000000001 l-1.38943,45.73133 l19.804,-12.46664 l-1.7167400000000002,-41.516 a13.07813,13.07813 0 0 0 -5.633,-14.93976 A12.51576,12.51576 0 0 0 360.426576484375,303.72837686035155 z" fill="#9e616a" id="svg_22"/><path d="M363.592446484375,350.86105686035154 l21.77848,3.0969 L384.434496484375,399.0576568603516 a18.87021,18.87021 0 0 1 -9.2252,15.90257 h0 a18.08052,18.08052 0 0 1 -21.59742,-2.45209 l-51.41666,-49.4556 a19.49483,19.49483 0 0 1 -1.43654,-26.76963 h0 a18.48861,18.48861 0 0 1 26.48858,-1.81377 a18.96922,18.96922 0 0 1 1.44774,1.4420000000000002 l33.95083,39.057 z" fill="#e6e6e6" id="svg_23"/><path d="M185.440016484375,502.4255368603516 a19.12251,19.12251 0 0 1 -18.88692,-19.30783 V374.38415686035154 a18.89151,18.89151 0 1 1 37.77384,0 V483.1177068603515 A19.1225,19.1225 0 0 1 185.440016484375,502.4255368603516 z" fill="#cacaca" id="svg_24"/><path d="M303.998736484375,629.9064668603515 H281.135626484375 V530.3710768603515 h-7.95239 v99.53539 H250.32014648437502 a13.069,13.069 0 0 0 -12.92263,13.21055 v0.00006000000000000002 h79.52387 v-0.00006000000000000002 A13.069,13.069 0 0 0 303.998736484375,629.9064668603515 z" fill="#3f3d56" id="svg_25"/><path d="M341.032016484375,235.82196686035155 c-6.37413,-3.7501700000000002 -14.13333,-3.7587800000000002 -21.48735,-3.66513 q-7.99224,0.10179000000000002 -15.98449,0.20353000000000002 c-6.46742,0.08236000000000002 -13.29429,0.266 -18.80367,3.7297000000000002 s-8.84767,11.44627 -5.21,16.91357 c-10.81831,-9.60965 -27.02072,-11.12771 -40.58129,-6.3870000000000005 c-6.63619,2.3200000000000003 -12.91619,6.08544 -17.4236,11.57846 c-4.896100000000001,5.96708 -7.44484,13.65029 -8.46962,21.368 c-1.02477,7.71773 -0.62438,15.55 -0.22259000000000004,23.32762 c0.25295,4.89052 0.80723,10.40587 4.57133,13.435 c3.47286,2.79421 8.56242,2.37247 12.59557,0.52555 c7.033,-3.22065 11.89544,-9.97023 15.53,-16.91716 c3.6350000000000002,-6.94708 6.40592,-14.417 10.93138,-20.79372 c4.52594,-6.37676 11.35326,-11.71033 19.05964,-11.802 c-5.24024,7.6005400000000005 -6.19674,18.64746 -0.72006,26.07162 c3.93858,5.33863 10.5104,8.11051 17.01513,8.81453 c6.50426,0.70415 13.05077,-0.41474 19.50012,-1.53 c4.36692,-0.7550800000000001 9.50254,-2.14211 10.94792,-6.422 c1.41738,-4.19654 -1.62161,-8.43487 -2.9216800000000003,-12.6708 c-2.50927,-8.17546 2.6390000000000002,-17.94732 10.697420000000001,-20.30444 l-0.6567500000000002,-0.6478300000000001 c6.67251,0.9513900000000001 14.66478,0.06893000000000002 18.21735,-5.78317 C351.495026484375,248.47789686035156 347.406146484375,239.57219686035154 341.032016484375,235.82196686035155 z" fill="#2f2e41" id="svg_26"/><path d="M983.2170264843751,30.665996860351555 H409.098626484375 a0.8520000000000001,0.8520000000000001 0 0 1 0,-1.7036700000000002 h574.1184 a0.8520000000000001,0.8520000000000001 0 0 1 0,1.7036700000000002 z" fill="#cacaca" id="svg_27"/><ellipse cx="427.8536071777344" cy="9.370160102844238" rx="9.165900230407715" ry="9.370160102844238" fill="#3f3d56" id="svg_28"/><ellipse cx="459.5176086425781" cy="9.370160102844238" rx="9.165900230407715" ry="9.370160102844238" fill="#3f3d56" id="svg_29"/><ellipse cx="491.1816101074219" cy="9.370160102844238" rx="9.165900230407715" ry="9.370160102844238" fill="#3f3d56" id="svg_30"/><path d="M964.245526484375,5.731426860351576 h-22.49811 a1.70408,1.70408 0 0 1 0,-3.40733 h22.49811 a1.70408,1.70408 0 0 1 0,3.40733 z" fill="#3f3d56" id="svg_31"/><path d="M964.245526484375,12.120176860351563 h-22.49811 a1.70408,1.70408 0 0 1 0,-3.40733 h22.49811 a1.70408,1.70408 0 0 1 0,3.40733 z" fill="#3f3d56" id="svg_32"/><path d="M964.245526484375,18.50892686035155 h-22.49811 a1.70408,1.70408 0 0 1 0,-3.40733 h22.49811 a1.70408,1.70408 0 0 1 0,3.40733 z" fill="#3f3d56" id="svg_33"/><path d="M870.714286484375,299.5905068603516 H499.47536648437494 a6.9608,6.9608 0 0 1 -6.87479,-7.028 V126.01282686035157 a6.96084,6.96084 0 0 1 6.87479,-7.02805 H870.714286484375 a6.96086,6.96086 0 0 1 6.8747300000000005,7.02805 V292.56250686035156 A6.96083,6.96083 0 0 1 870.714286484375,299.5905068603516 z" fill="#ff8600" id="svg_34" class="selected" fill-opacity="1"/><path d="M575.078256484375,177.03686686035155 a4.77255,4.77255 0 0 0 0,9.54279 h220.0332 a4.77274,4.77274 0 0 0 0,-9.54276 z" fill="#fff" id="svg_35"/><path d="M575.078256484375,204.68390686035156 a4.77274,4.77274 0 0 0 0,9.54277 h220.0332 a4.77274,4.77274 0 0 0 0,-9.54277 z" fill="#fff" id="svg_36"/><path d="M575.078256484375,231.99571686035154 a4.77254,4.77254 0 0 0 0,9.54277 H669.759146484375 a4.77254,4.77254 0 0 0 0,-9.54277 H575.078256484375 z" fill="#fff" id="svg_37"/><ellipse cx="871.3977661132812" cy="288.9093322753906" rx="28.004209518432617" ry="28.62830924987793" fill="#3f3d56" id="svg_38"/><polygon points="869.063 301.568 860.175 289.885 865.344 285.775 869.552 291.306 883.769 275.965 888.524 280.569 869.063 301.568" fill="#fff" id="svg_39"/><path d="M644.625146484375,643.9153168603516 H1.183596484375002 a1.21027,1.21027 0 0 1 0,-2.42 H644.625146484375 a1.21027,1.21027 0 0 1 0,2.42 z" fill="#cacaca" id="svg_40"/></g></svg>